<svg width="1024" height="753" viewBox="0 0 1024 753" fill="none" xmlns="http://www.w3.org/2000/svg">
<g clip-path="url(#clip0_122_130)">
<rect width="1024" height="753" fill="#121214"/>
<g opacity="0.2" filter="url(#filter0_f_122_130)">
<ellipse cx="511.5" cy="1.39764" rx="670.5" ry="413.398" fill="#35875D"/>
</g>
<path d="M32.0349 280.146C33.5302 280.146 34.6622 280.89 35.4308 282.379C36.2134 283.852 36.6047 285.996 36.6047 288.811C36.6047 291.625 36.2134 293.777 35.4308 295.266C34.6622 296.756 33.5302 297.5 32.0349 297.5C30.5536 297.5 29.4216 296.756 28.639 295.266C27.8564 293.777 27.4651 291.625 27.4651 288.811C27.4651 286.012 27.8564 283.869 28.639 282.379C29.4216 280.89 30.5536 280.146 32.0349 280.146ZM28.9534 288.811C28.9534 290.807 29.1072 292.37 29.4146 293.499L34.0683 282.625C33.5791 281.856 32.9013 281.471 32.0349 281.471C31.0706 281.471 30.316 282.077 29.771 283.288C29.2259 284.482 28.9534 286.323 28.9534 288.811ZM32.0349 296.15C33.0131 296.15 33.7748 295.553 34.3198 294.358C34.8648 293.147 35.1373 291.298 35.1373 288.811C35.1373 286.7 34.9627 285.063 34.6133 283.901L29.9596 294.874C30.4627 295.725 31.1545 296.15 32.0349 296.15Z" fill="url(#paint0_linear_122_130)" fill-opacity="0.6"/>
<path d="M33.2926 324.007H36.3741V325.308H28.3874V324.007H31.9511V310.212L28.5551 312.593L27.9682 311.488L32.1607 308.444H33.2926V324.007Z" fill="url(#paint1_linear_122_130)" fill-opacity="0.6"/>
<path d="M32.0349 336.252C33.5302 336.252 34.6622 336.997 35.4308 338.486C36.2134 339.959 36.6047 342.102 36.6047 344.917C36.6047 347.732 36.2134 349.884 35.4308 351.373C34.6622 352.862 33.5302 353.607 32.0349 353.607C30.5536 353.607 29.4216 352.862 28.639 351.373C27.8564 349.884 27.4651 347.732 27.4651 344.917C27.4651 342.119 27.8564 339.975 28.639 338.486C29.4216 336.997 30.5536 336.252 32.0349 336.252ZM28.9534 344.917C28.9534 346.914 29.1072 348.476 29.4146 349.606L34.0683 338.731C33.5791 337.962 32.9013 337.578 32.0349 337.578C31.0706 337.578 30.316 338.183 29.771 339.394C29.2259 340.589 28.9534 342.43 28.9534 344.917ZM32.0349 352.257C33.0131 352.257 33.7748 351.659 34.3198 350.465C34.8648 349.254 35.1373 347.405 35.1373 344.917C35.1373 342.806 34.9627 341.17 34.6133 340.008L29.9596 350.98C30.4627 351.831 31.1545 352.257 32.0349 352.257Z" fill="url(#paint2_linear_122_130)" fill-opacity="0.6"/>
<path d="M33.2926 380.113H36.3741V381.414H28.3874V380.113H31.9511V366.318L28.5551 368.699L27.9682 367.595L32.1607 364.551H33.2926V380.113Z" fill="url(#paint3_linear_122_130)" fill-opacity="0.6"/>
<path d="M33.2926 408.167H36.3741V409.468H28.3874V408.167H31.9511V394.372L28.5551 396.753L27.9682 395.648L32.1607 392.604H33.2926V408.167Z" fill="url(#paint4_linear_122_130)" fill-opacity="0.6"/>
<path d="M32.0349 420.412C33.5302 420.412 34.6622 421.157 35.4308 422.646C36.2134 424.118 36.6047 426.262 36.6047 429.077C36.6047 431.892 36.2134 434.043 35.4308 435.533C34.6622 437.022 33.5302 437.766 32.0349 437.766C30.5536 437.766 29.4216 437.022 28.639 435.533C27.8564 434.043 27.4651 431.892 27.4651 429.077C27.4651 426.279 27.8564 424.135 28.639 422.646C29.4216 421.157 30.5536 420.412 32.0349 420.412ZM28.9534 429.077C28.9534 431.073 29.1072 432.636 29.4146 433.765L34.0683 422.891C33.5791 422.122 32.9013 421.737 32.0349 421.737C31.0706 421.737 30.316 422.343 29.771 423.554C29.2259 424.748 28.9534 426.589 28.9534 429.077ZM32.0349 436.416C33.0131 436.416 33.7748 435.819 34.3198 434.624C34.8648 433.413 35.1373 431.564 35.1373 429.077C35.1373 426.966 34.9627 425.329 34.6133 424.168L29.9596 435.14C30.4627 435.991 31.1545 436.416 32.0349 436.416Z" fill="url(#paint5_linear_122_130)" fill-opacity="0.6"/>
<path d="M33.2926 464.273H36.3741V465.574H28.3874V464.273H31.9511V450.478L28.5551 452.859L27.9682 451.754L32.1607 448.711H33.2926V464.273Z" fill="url(#paint6_linear_122_130)" fill-opacity="0.6"/>
<path d="M32.0349 476.518C33.5302 476.518 34.6622 477.263 35.4308 478.752C36.2134 480.225 36.6047 482.369 36.6047 485.183C36.6047 487.998 36.2134 490.15 35.4308 491.639C34.6622 493.128 33.5302 493.873 32.0349 493.873C30.5536 493.873 29.4216 493.128 28.639 491.639C27.8564 490.15 27.4651 487.998 27.4651 485.183C27.4651 482.385 27.8564 480.241 28.639 478.752C29.4216 477.263 30.5536 476.518 32.0349 476.518ZM28.9534 485.183C28.9534 487.18 29.1072 488.743 29.4146 489.872L34.0683 478.998C33.5791 478.228 32.9013 477.844 32.0349 477.844C31.0706 477.844 30.316 478.449 29.771 479.66C29.2259 480.855 28.9534 482.696 28.9534 485.183ZM32.0349 492.523C33.0131 492.523 33.7748 491.925 34.3198 490.731C34.8648 489.52 35.1373 487.671 35.1373 485.183C35.1373 483.072 34.9627 481.436 34.6133 480.274L29.9596 491.246C30.4627 492.097 31.1545 492.523 32.0349 492.523Z" fill="url(#paint7_linear_122_130)" fill-opacity="0.6"/>
<path d="M32.0349 504.572C33.5302 504.572 34.6622 505.316 35.4308 506.805C36.2134 508.278 36.6047 510.422 36.6047 513.237C36.6047 516.051 36.2134 518.203 35.4308 519.692C34.6622 521.181 33.5302 521.926 32.0349 521.926C30.5536 521.926 29.4216 521.181 28.639 519.692C27.8564 518.203 27.4651 516.051 27.4651 513.237C27.4651 510.438 27.8564 508.295 28.639 506.805C29.4216 505.316 30.5536 504.572 32.0349 504.572ZM28.9534 513.237C28.9534 515.233 29.1072 516.796 29.4146 517.925L34.0683 507.051C33.5791 506.282 32.9013 505.897 32.0349 505.897C31.0706 505.897 30.316 506.503 29.771 507.714C29.2259 508.908 28.9534 510.749 28.9534 513.237ZM32.0349 520.576C33.0131 520.576 33.7748 519.979 34.3198 518.784C34.8648 517.573 35.1373 515.724 35.1373 513.237C35.1373 511.126 34.9627 509.489 34.6133 508.327L29.9596 519.3C30.4627 520.151 31.1545 520.576 32.0349 520.576Z" fill="url(#paint8_linear_122_130)" fill-opacity="0.6"/>
<path d="M33.2926 548.433H36.3741V549.734H28.3874V548.433H31.9511V534.638L28.5551 537.019L27.9682 535.914L32.1607 532.87H33.2926V548.433Z" fill="url(#paint9_linear_122_130)" fill-opacity="0.6"/>
<path d="M32.0349 560.678C33.5302 560.678 34.6622 561.423 35.4308 562.912C36.2134 564.385 36.6047 566.528 36.6047 569.343C36.6047 572.158 36.2134 574.31 35.4308 575.799C34.6622 577.288 33.5302 578.033 32.0349 578.033C30.5536 578.033 29.4216 577.288 28.639 575.799C27.8564 574.31 27.4651 572.158 27.4651 569.343C27.4651 566.545 27.8564 564.401 28.639 562.912C29.4216 561.423 30.5536 560.678 32.0349 560.678ZM28.9534 569.343C28.9534 571.339 29.1072 572.902 29.4146 574.031L34.0683 563.157C33.5791 562.388 32.9013 562.004 32.0349 562.004C31.0706 562.004 30.316 562.609 29.771 563.82C29.2259 565.015 28.9534 566.856 28.9534 569.343ZM32.0349 576.682C33.0131 576.682 33.7748 576.085 34.3198 574.891C34.8648 573.68 35.1373 571.83 35.1373 569.343C35.1373 567.232 34.9627 565.596 34.6133 564.434L29.9596 575.406C30.4627 576.257 31.1545 576.682 32.0349 576.682Z" fill="url(#paint10_linear_122_130)" fill-opacity="0.6"/>
<path d="M33.2926 604.539H36.3741V605.84H28.3874V604.539H31.9511V590.744L28.5551 593.125L27.9682 592.021L32.1607 588.977H33.2926V604.539Z" fill="url(#paint11_linear_122_130)" fill-opacity="0.6"/>
<path d="M33.2926 632.593H36.3741V633.894H28.3874V632.593H31.9511V618.797L28.5551 621.178L27.9682 620.074L32.1607 617.03H33.2926V632.593Z" fill="url(#paint12_linear_122_130)" fill-opacity="0.6"/>
<path d="M70.9651 336.252C72.4604 336.252 73.5924 336.997 74.361 338.486C75.1436 339.959 75.5349 342.102 75.5349 344.917C75.5349 347.732 75.1436 349.884 74.361 351.373C73.5924 352.862 72.4604 353.607 70.9651 353.607C69.4838 353.607 68.3518 352.862 67.5692 351.373C66.7866 349.884 66.3953 347.732 66.3953 344.917C66.3953 342.119 66.7866 339.975 67.5692 338.486C68.3518 336.997 69.4838 336.252 70.9651 336.252ZM67.8836 344.917C67.8836 346.914 68.0374 348.476 68.3448 349.606L72.9985 338.731C72.5093 337.962 71.8315 337.578 70.9651 337.578C70.0008 337.578 69.2462 338.183 68.7012 339.394C68.1561 340.589 67.8836 342.43 67.8836 344.917ZM70.9651 352.257C71.9433 352.257 72.705 351.659 73.25 350.465C73.795 349.254 74.0675 347.405 74.0675 344.917C74.0675 342.806 73.8928 341.17 73.5435 340.008L68.8898 350.98C69.3929 351.831 70.0847 352.257 70.9651 352.257Z" fill="url(#paint13_linear_122_130)" fill-opacity="0.6"/>
<path d="M72.2228 380.113H75.3043V381.414H67.3176V380.113H70.8812V366.318L67.4853 368.699L66.8984 367.595L71.0909 364.551H72.2228V380.113Z" fill="url(#paint14_linear_122_130)" fill-opacity="0.6"/>
<path d="M70.9651 392.359C72.4604 392.359 73.5924 393.103 74.361 394.592C75.1436 396.065 75.5349 398.209 75.5349 401.024C75.5349 403.838 75.1436 405.99 74.361 407.479C73.5924 408.969 72.4604 409.713 70.9651 409.713C69.4838 409.713 68.3518 408.969 67.5692 407.479C66.7866 405.99 66.3953 403.838 66.3953 401.024C66.3953 398.225 66.7866 396.082 67.5692 394.592C68.3518 393.103 69.4838 392.359 70.9651 392.359ZM67.8836 401.024C67.8836 403.02 68.0374 404.583 68.3448 405.712L72.9985 394.838C72.5093 394.069 71.8315 393.684 70.9651 393.684C70.0008 393.684 69.2462 394.29 68.7012 395.501C68.1561 396.695 67.8836 398.536 67.8836 401.024ZM70.9651 408.363C71.9433 408.363 72.705 407.766 73.25 406.571C73.795 405.36 74.0675 403.511 74.0675 401.024C74.0675 398.913 73.8928 397.276 73.5435 396.114L68.8898 407.087C69.3929 407.938 70.0847 408.363 70.9651 408.363Z" fill="url(#paint15_linear_122_130)" fill-opacity="0.6"/>
<path d="M70.9651 420.412C72.4604 420.412 73.5924 421.157 74.361 422.646C75.1436 424.118 75.5349 426.262 75.5349 429.077C75.5349 431.892 75.1436 434.043 74.361 435.533C73.5924 437.022 72.4604 437.766 70.9651 437.766C69.4838 437.766 68.3518 437.022 67.5692 435.533C66.7866 434.043 66.3953 431.892 66.3953 429.077C66.3953 426.279 66.7866 424.135 67.5692 422.646C68.3518 421.157 69.4838 420.412 70.9651 420.412ZM67.8836 429.077C67.8836 431.073 68.0374 432.636 68.3448 433.765L72.9985 422.891C72.5093 422.122 71.8315 421.737 70.9651 421.737C70.0008 421.737 69.2462 422.343 68.7012 423.554C68.1561 424.748 67.8836 426.589 67.8836 429.077ZM70.9651 436.416C71.9433 436.416 72.705 435.819 73.25 434.624C73.795 433.413 74.0675 431.564 74.0675 429.077C74.0675 426.966 73.8928 425.329 73.5435 424.168L68.8898 435.14C69.3929 435.991 70.0847 436.416 70.9651 436.416Z" fill="url(#paint16_linear_122_130)" fill-opacity="0.6"/>
<path d="M72.2228 464.273H75.3043V465.574H67.3176V464.273H70.8812V450.478L67.4853 452.859L66.8984 451.754L71.0909 448.711H72.2228V464.273Z" fill="url(#paint17_linear_122_130)" fill-opacity="0.6"/>
<path d="M70.9651 476.518C72.4604 476.518 73.5924 477.263 74.361 478.752C75.1436 480.225 75.5349 482.369 75.5349 485.183C75.5349 487.998 75.1436 490.15 74.361 491.639C73.5924 493.128 72.4604 493.873 70.9651 493.873C69.4838 493.873 68.3518 493.128 67.5692 491.639C66.7866 490.15 66.3953 487.998 66.3953 485.183C66.3953 482.385 66.7866 480.241 67.5692 478.752C68.3518 477.263 69.4838 476.518 70.9651 476.518ZM67.8836 485.183C67.8836 487.18 68.0374 488.743 68.3448 489.872L72.9985 478.998C72.5093 478.228 71.8315 477.844 70.9651 477.844C70.0008 477.844 69.2462 478.449 68.7012 479.66C68.1561 480.855 67.8836 482.696 67.8836 485.183ZM70.9651 492.523C71.9433 492.523 72.705 491.925 73.25 490.731C73.795 489.52 74.0675 487.671 74.0675 485.183C74.0675 483.072 73.8928 481.436 73.5435 480.274L68.8898 491.246C69.3929 492.097 70.0847 492.523 70.9651 492.523Z" fill="url(#paint18_linear_122_130)" fill-opacity="0.6"/>
<path d="M72.2228 520.38H75.3043V521.681H67.3176V520.38H70.8812V506.584L67.4853 508.965L66.8984 507.861L71.0909 504.817H72.2228V520.38Z" fill="url(#paint19_linear_122_130)" fill-opacity="0.6"/>
<path d="M70.9651 532.625C72.4604 532.625 73.5924 533.369 74.361 534.859C75.1436 536.331 75.5349 538.475 75.5349 541.29C75.5349 544.104 75.1436 546.256 74.361 547.746C73.5924 549.235 72.4604 549.979 70.9651 549.979C69.4838 549.979 68.3518 549.235 67.5692 547.746C66.7866 546.256 66.3953 544.104 66.3953 541.29C66.3953 538.491 66.7866 536.348 67.5692 534.859C68.3518 533.369 69.4838 532.625 70.9651 532.625ZM67.8836 541.29C67.8836 543.286 68.0374 544.849 68.3448 545.978L72.9985 535.104C72.5093 534.335 71.8315 533.95 70.9651 533.95C70.0008 533.95 69.2462 534.556 68.7012 535.767C68.1561 536.961 67.8836 538.802 67.8836 541.29ZM70.9651 548.629C71.9433 548.629 72.705 548.032 73.25 546.837C73.795 545.626 74.0675 543.777 74.0675 541.29C74.0675 539.179 73.8928 537.542 73.5435 536.38L68.8898 547.353C69.3929 548.204 70.0847 548.629 70.9651 548.629Z" fill="url(#paint20_linear_122_130)" fill-opacity="0.6"/>
<path d="M70.9651 560.678C72.4604 560.678 73.5924 561.423 74.361 562.912C75.1436 564.385 75.5349 566.528 75.5349 569.343C75.5349 572.158 75.1436 574.31 74.361 575.799C73.5924 577.288 72.4604 578.033 70.9651 578.033C69.4838 578.033 68.3518 577.288 67.5692 575.799C66.7866 574.31 66.3953 572.158 66.3953 569.343C66.3953 566.545 66.7866 564.401 67.5692 562.912C68.3518 561.423 69.4838 560.678 70.9651 560.678ZM67.8836 569.343C67.8836 571.339 68.0374 572.902 68.3448 574.031L72.9985 563.157C72.5093 562.388 71.8315 562.004 70.9651 562.004C70.0008 562.004 69.2462 562.609 68.7012 563.82C68.1561 565.015 67.8836 566.856 67.8836 569.343ZM70.9651 576.682C71.9433 576.682 72.705 576.085 73.25 574.891C73.795 573.68 74.0675 571.83 74.0675 569.343C74.0675 567.232 73.8928 565.596 73.5435 564.434L68.8898 575.406C69.3929 576.257 70.0847 576.682 70.9651 576.682Z" fill="url(#paint21_linear_122_130)" fill-opacity="0.6"/>
<path d="M72.2228 604.539H75.3043V605.84H67.3176V604.539H70.8812V590.744L67.4853 593.125L66.8984 592.021L71.0909 588.977H72.2228V604.539Z" fill="url(#paint22_linear_122_130)" fill-opacity="0.6"/>
<path d="M70.9651 616.785C72.4604 616.785 73.5924 617.529 74.361 619.018C75.1436 620.491 75.5349 622.635 75.5349 625.449C75.5349 628.264 75.1436 630.416 74.361 631.905C73.5924 633.394 72.4604 634.139 70.9651 634.139C69.4838 634.139 68.3518 633.394 67.5692 631.905C66.7866 630.416 66.3953 628.264 66.3953 625.449C66.3953 622.651 66.7866 620.507 67.5692 619.018C68.3518 617.529 69.4838 616.785 70.9651 616.785ZM67.8836 625.449C67.8836 627.446 68.0374 629.009 68.3448 630.138L72.9985 619.264C72.5093 618.495 71.8315 618.11 70.9651 618.11C70.0008 618.11 69.2462 618.716 68.7012 619.927C68.1561 621.121 67.8836 622.962 67.8836 625.449ZM70.9651 632.789C71.9433 632.789 72.705 632.192 73.25 630.997C73.795 629.786 74.0675 627.937 74.0675 625.449C74.0675 623.338 73.8928 621.702 73.5435 620.54L68.8898 631.512C69.3929 632.363 70.0847 632.789 70.9651 632.789Z" fill="url(#paint23_linear_122_130)" fill-opacity="0.6"/>
<path d="M72.2228 660.646H75.3043V661.947H67.3176V660.646H70.8812V646.851L67.4853 649.232L66.8984 648.127L71.0909 645.083H72.2228V660.646Z" fill="url(#paint24_linear_122_130)" fill-opacity="0.6"/>
<path d="M72.2228 688.699H75.3043V690H67.3176V688.699H70.8812V674.904L67.4853 677.285L66.8984 676.18L71.0909 673.136H72.2228V688.699Z" fill="url(#paint25_linear_122_130)" fill-opacity="0.6"/>
<path d="M12.5698 364.305C14.0651 364.305 15.1971 365.05 15.9657 366.539C16.7483 368.012 17.1396 370.156 17.1396 372.97C17.1396 375.785 16.7483 377.937 15.9657 379.426C15.1971 380.915 14.0651 381.66 12.5698 381.66C11.0885 381.66 9.95649 380.915 9.1739 379.426C8.3913 377.937 8 375.785 8 372.97C8 370.172 8.3913 368.028 9.1739 366.539C9.95649 365.05 11.0885 364.305 12.5698 364.305ZM9.48833 372.97C9.48833 374.967 9.64206 376.53 9.9495 377.659L14.6032 366.785C14.114 366.016 13.4363 365.631 12.5698 365.631C11.6055 365.631 10.8509 366.236 10.3059 367.447C9.76084 368.642 9.48833 370.483 9.48833 372.97ZM12.5698 380.31C13.5481 380.31 14.3097 379.713 14.8547 378.518C15.3997 377.307 15.6722 375.458 15.6722 372.97C15.6722 370.859 15.4976 369.223 15.1482 368.061L10.4945 379.033C10.9976 379.884 11.6894 380.31 12.5698 380.31Z" fill="url(#paint26_linear_122_130)" fill-opacity="0.6"/>
<path d="M12.5698 392.359C14.0651 392.359 15.1971 393.103 15.9657 394.592C16.7483 396.065 17.1396 398.209 17.1396 401.024C17.1396 403.838 16.7483 405.99 15.9657 407.479C15.1971 408.969 14.0651 409.713 12.5698 409.713C11.0885 409.713 9.95649 408.969 9.1739 407.479C8.3913 405.99 8 403.838 8 401.024C8 398.225 8.3913 396.082 9.1739 394.592C9.95649 393.103 11.0885 392.359 12.5698 392.359ZM9.48833 401.024C9.48833 403.02 9.64206 404.583 9.9495 405.712L14.6032 394.838C14.114 394.069 13.4363 393.684 12.5698 393.684C11.6055 393.684 10.8509 394.29 10.3059 395.501C9.76084 396.695 9.48833 398.536 9.48833 401.024ZM12.5698 408.363C13.5481 408.363 14.3097 407.766 14.8547 406.571C15.3997 405.36 15.6722 403.511 15.6722 401.024C15.6722 398.913 15.4976 397.276 15.1482 396.114L10.4945 407.087C10.9976 407.938 11.6894 408.363 12.5698 408.363Z" fill="url(#paint27_linear_122_130)" fill-opacity="0.6"/>
<path d="M13.8276 436.22H16.909V437.521H8.92235V436.22H12.486V422.425L9.09005 424.806L8.5031 423.701L12.6956 420.657H13.8276V436.22Z" fill="url(#paint28_linear_122_130)" fill-opacity="0.6"/>
<path d="M12.5698 448.465C14.0651 448.465 15.1971 449.21 15.9657 450.699C16.7483 452.172 17.1396 454.315 17.1396 457.13C17.1396 459.945 16.7483 462.097 15.9657 463.586C15.1971 465.075 14.0651 465.82 12.5698 465.82C11.0885 465.82 9.95649 465.075 9.1739 463.586C8.3913 462.097 8 459.945 8 457.13C8 454.332 8.3913 452.188 9.1739 450.699C9.95649 449.21 11.0885 448.465 12.5698 448.465ZM9.48833 457.13C9.48833 459.127 9.64206 460.689 9.9495 461.818L14.6032 450.944C14.114 450.175 13.4363 449.791 12.5698 449.791C11.6055 449.791 10.8509 450.396 10.3059 451.607C9.76084 452.802 9.48833 454.643 9.48833 457.13ZM12.5698 464.47C13.5481 464.47 14.3097 463.872 14.8547 462.678C15.3997 461.467 15.6722 459.617 15.6722 457.13C15.6722 455.019 15.4976 453.383 15.1482 452.221L10.4945 463.193C10.9976 464.044 11.6894 464.47 12.5698 464.47Z" fill="url(#paint29_linear_122_130)" fill-opacity="0.6"/>
<path d="M13.8276 492.326H16.909V493.627H8.92235V492.326H12.486V478.531L9.09005 480.912L8.5031 479.808L12.6956 476.764H13.8276V492.326Z" fill="url(#paint30_linear_122_130)" fill-opacity="0.6"/>
<path d="M13.8276 520.38H16.909V521.681H8.92235V520.38H12.486V506.584L9.09005 508.965L8.5031 507.861L12.6956 504.817H13.8276V520.38Z" fill="url(#paint31_linear_122_130)" fill-opacity="0.6"/>
<path d="M52.7577 324.007H55.8392V325.308H47.8525V324.007H51.4162V310.212L48.0202 312.593L47.4333 311.488L51.6258 308.444H52.7577V324.007Z" fill="url(#paint32_linear_122_130)" fill-opacity="0.6"/>
<path d="M51.5 336.252C52.9953 336.252 54.1273 336.997 54.8959 338.486C55.6785 339.959 56.0698 342.102 56.0698 344.917C56.0698 347.732 55.6785 349.884 54.8959 351.373C54.1273 352.862 52.9953 353.607 51.5 353.607C50.0187 353.607 48.8867 352.862 48.1041 351.373C47.3215 349.884 46.9302 347.732 46.9302 344.917C46.9302 342.119 47.3215 339.975 48.1041 338.486C48.8867 336.997 50.0187 336.252 51.5 336.252ZM48.4185 344.917C48.4185 346.914 48.5723 348.476 48.8797 349.606L53.5334 338.731C53.0442 337.962 52.3664 337.578 51.5 337.578C50.5357 337.578 49.7811 338.183 49.2361 339.394C48.691 340.589 48.4185 342.43 48.4185 344.917ZM51.5 352.257C52.4782 352.257 53.2399 351.659 53.7849 350.465C54.3299 349.254 54.6024 347.405 54.6024 344.917C54.6024 342.806 54.4277 341.17 54.0784 340.008L49.4247 350.98C49.9278 351.831 50.6196 352.257 51.5 352.257Z" fill="url(#paint33_linear_122_130)" fill-opacity="0.6"/>
<path d="M52.7577 380.113H55.8392V381.414H47.8525V380.113H51.4162V366.318L48.0202 368.699L47.4333 367.595L51.6258 364.551H52.7577V380.113Z" fill="url(#paint34_linear_122_130)" fill-opacity="0.6"/>
<path d="M52.7577 408.167H55.8392V409.468H47.8525V408.167H51.4162V394.372L48.0202 396.753L47.4333 395.648L51.6258 392.604H52.7577V408.167Z" fill="url(#paint35_linear_122_130)" fill-opacity="0.6"/>
<path d="M51.5 420.412C52.9953 420.412 54.1273 421.157 54.8959 422.646C55.6785 424.118 56.0698 426.262 56.0698 429.077C56.0698 431.892 55.6785 434.043 54.8959 435.533C54.1273 437.022 52.9953 437.766 51.5 437.766C50.0187 437.766 48.8867 437.022 48.1041 435.533C47.3215 434.043 46.9302 431.892 46.9302 429.077C46.9302 426.279 47.3215 424.135 48.1041 422.646C48.8867 421.157 50.0187 420.412 51.5 420.412ZM48.4185 429.077C48.4185 431.073 48.5723 432.636 48.8797 433.765L53.5334 422.891C53.0442 422.122 52.3664 421.737 51.5 421.737C50.5357 421.737 49.7811 422.343 49.2361 423.554C48.691 424.748 48.4185 426.589 48.4185 429.077ZM51.5 436.416C52.4782 436.416 53.2399 435.819 53.7849 434.624C54.3299 433.413 54.6024 431.564 54.6024 429.077C54.6024 426.966 54.4277 425.329 54.0784 424.168L49.4247 435.14C49.9278 435.991 50.6196 436.416 51.5 436.416Z" fill="url(#paint36_linear_122_130)" fill-opacity="0.6"/>
<path d="M52.7577 464.273H55.8392V465.574H47.8525V464.273H51.4162V450.478L48.0202 452.859L47.4333 451.754L51.6258 448.711H52.7577V464.273Z" fill="url(#paint37_linear_122_130)" fill-opacity="0.6"/>
<path d="M52.7577 492.326H55.8392V493.627H47.8525V492.326H51.4162V478.531L48.0202 480.912L47.4333 479.808L51.6258 476.764H52.7577V492.326Z" fill="url(#paint38_linear_122_130)" fill-opacity="0.6"/>
<path d="M51.5 504.572C52.9953 504.572 54.1273 505.316 54.8959 506.805C55.6785 508.278 56.0698 510.422 56.0698 513.237C56.0698 516.051 55.6785 518.203 54.8959 519.692C54.1273 521.181 52.9953 521.926 51.5 521.926C50.0187 521.926 48.8867 521.181 48.1041 519.692C47.3215 518.203 46.9302 516.051 46.9302 513.237C46.9302 510.438 47.3215 508.295 48.1041 506.805C48.8867 505.316 50.0187 504.572 51.5 504.572ZM48.4185 513.237C48.4185 515.233 48.5723 516.796 48.8797 517.925L53.5334 507.051C53.0442 506.282 52.3664 505.897 51.5 505.897C50.5357 505.897 49.7811 506.503 49.2361 507.714C48.691 508.908 48.4185 510.749 48.4185 513.237ZM51.5 520.576C52.4782 520.576 53.2399 519.979 53.7849 518.784C54.3299 517.573 54.6024 515.724 54.6024 513.237C54.6024 511.126 54.4277 509.489 54.0784 508.327L49.4247 519.3C49.9278 520.151 50.6196 520.576 51.5 520.576Z" fill="url(#paint39_linear_122_130)" fill-opacity="0.6"/>
<path d="M52.7577 548.433H55.8392V549.734H47.8525V548.433H51.4162V534.638L48.0202 537.019L47.4333 535.914L51.6258 532.87H52.7577V548.433Z" fill="url(#paint40_linear_122_130)" fill-opacity="0.6"/>
<path d="M51.5 560.678C52.9953 560.678 54.1273 561.423 54.8959 562.912C55.6785 564.385 56.0698 566.528 56.0698 569.343C56.0698 572.158 55.6785 574.31 54.8959 575.799C54.1273 577.288 52.9953 578.033 51.5 578.033C50.0187 578.033 48.8867 577.288 48.1041 575.799C47.3215 574.31 46.9302 572.158 46.9302 569.343C46.9302 566.545 47.3215 564.401 48.1041 562.912C48.8867 561.423 50.0187 560.678 51.5 560.678ZM48.4185 569.343C48.4185 571.339 48.5723 572.902 48.8797 574.031L53.5334 563.157C53.0442 562.388 52.3664 562.004 51.5 562.004C50.5357 562.004 49.7811 562.609 49.2361 563.82C48.691 565.015 48.4185 566.856 48.4185 569.343ZM51.5 576.682C52.4782 576.682 53.2399 576.085 53.7849 574.891C54.3299 573.68 54.6024 571.83 54.6024 569.343C54.6024 567.232 54.4277 565.596 54.0784 564.434L49.4247 575.406C49.9278 576.257 50.6196 576.682 51.5 576.682Z" fill="url(#paint41_linear_122_130)" fill-opacity="0.6"/>
<path d="M90.4302 308.199C91.9255 308.199 93.0575 308.944 93.8261 310.433C94.6087 311.906 95 314.049 95 316.864C95 319.679 94.6087 321.831 93.8261 323.32C93.0575 324.809 91.9255 325.553 90.4302 325.553C88.9489 325.553 87.8169 324.809 87.0343 323.32C86.2517 321.831 85.8604 319.679 85.8604 316.864C85.8604 314.066 86.2517 311.922 87.0343 310.433C87.8169 308.944 88.9489 308.199 90.4302 308.199ZM87.3487 316.864C87.3487 318.86 87.5024 320.423 87.8099 321.552L92.4636 310.678C91.9744 309.909 91.2966 309.525 90.4302 309.525C89.4659 309.525 88.7113 310.13 88.1663 311.341C87.6212 312.536 87.3487 314.377 87.3487 316.864ZM90.4302 324.203C91.4084 324.203 92.1701 323.606 92.7151 322.411C93.2601 321.2 93.5326 319.351 93.5326 316.864C93.5326 314.753 93.3579 313.116 93.0086 311.955L88.3549 322.927C88.858 323.778 89.5498 324.203 90.4302 324.203Z" fill="url(#paint42_linear_122_130)" fill-opacity="0.6"/>
<path d="M91.6879 352.06H94.7694V353.361H86.7827V352.06H90.3463V338.265L86.9504 340.646L86.3635 339.541L90.556 336.498H91.6879V352.06Z" fill="url(#paint43_linear_122_130)" fill-opacity="0.6"/>
<path d="M91.6879 380.113H94.7694V381.414H86.7827V380.113H90.3463V366.318L86.9504 368.699L86.3635 367.595L90.556 364.551H91.6879V380.113Z" fill="url(#paint44_linear_122_130)" fill-opacity="0.6"/>
<path d="M90.4302 392.359C91.9255 392.359 93.0575 393.103 93.8261 394.592C94.6087 396.065 95 398.209 95 401.024C95 403.838 94.6087 405.99 93.8261 407.479C93.0575 408.969 91.9255 409.713 90.4302 409.713C88.9489 409.713 87.8169 408.969 87.0343 407.479C86.2517 405.99 85.8604 403.838 85.8604 401.024C85.8604 398.225 86.2517 396.082 87.0343 394.592C87.8169 393.103 88.9489 392.359 90.4302 392.359ZM87.3487 401.024C87.3487 403.02 87.5024 404.583 87.8099 405.712L92.4636 394.838C91.9744 394.069 91.2966 393.684 90.4302 393.684C89.4659 393.684 88.7113 394.29 88.1663 395.501C87.6212 396.695 87.3487 398.536 87.3487 401.024ZM90.4302 408.363C91.4084 408.363 92.1701 407.766 92.7151 406.571C93.2601 405.36 93.5326 403.511 93.5326 401.024C93.5326 398.913 93.3579 397.276 93.0086 396.114L88.3549 407.087C88.858 407.938 89.5498 408.363 90.4302 408.363Z" fill="url(#paint45_linear_122_130)" fill-opacity="0.6"/>
<path d="M90.4302 420.412C91.9255 420.412 93.0575 421.157 93.8261 422.646C94.6087 424.118 95 426.262 95 429.077C95 431.892 94.6087 434.043 93.8261 435.533C93.0575 437.022 91.9255 437.766 90.4302 437.766C88.9489 437.766 87.8169 437.022 87.0343 435.533C86.2517 434.043 85.8604 431.892 85.8604 429.077C85.8604 426.279 86.2517 424.135 87.0343 422.646C87.8169 421.157 88.9489 420.412 90.4302 420.412ZM87.3487 429.077C87.3487 431.073 87.5024 432.636 87.8099 433.765L92.4636 422.891C91.9744 422.122 91.2966 421.737 90.4302 421.737C89.4659 421.737 88.7113 422.343 88.1663 423.554C87.6212 424.748 87.3487 426.589 87.3487 429.077ZM90.4302 436.416C91.4084 436.416 92.1701 435.819 92.7151 434.624C93.2601 433.413 93.5326 431.564 93.5326 429.077C93.5326 426.966 93.3579 425.329 93.0086 424.168L88.3549 435.14C88.858 435.991 89.5498 436.416 90.4302 436.416Z" fill="url(#paint46_linear_122_130)" fill-opacity="0.6"/>
<g opacity="0.6">
<path d="M918.93 -74.1951C920.356 -74.1951 921.436 -73.4805 922.17 -72.0515C922.916 -70.6381 923.29 -68.5808 923.29 -65.8797C923.29 -63.1786 922.916 -61.1135 922.17 -59.6844C921.436 -58.2554 920.356 -57.5408 918.93 -57.5408C917.517 -57.5408 916.437 -58.2554 915.69 -59.6844C914.943 -61.1135 914.57 -63.1786 914.57 -65.8797C914.57 -68.5651 914.943 -70.6224 915.69 -72.0515C916.437 -73.4805 917.517 -74.1951 918.93 -74.1951ZM915.99 -65.8797C915.99 -63.9638 916.137 -62.4641 916.43 -61.3805L920.87 -71.8159C920.403 -72.554 919.756 -72.923 918.93 -72.923C918.01 -72.923 917.29 -72.342 916.77 -71.1799C916.25 -70.0335 915.99 -68.2668 915.99 -65.8797ZM918.93 -58.8364C919.863 -58.8364 920.59 -59.4096 921.11 -60.556C921.63 -61.7181 921.89 -63.4927 921.89 -65.8797C921.89 -67.9056 921.723 -69.476 921.39 -70.591L916.95 -60.0613C917.43 -59.2447 918.09 -58.8364 918.93 -58.8364Z" fill="url(#paint47_linear_122_130)"/>
<path d="M920.13 -32.1035H923.07V-30.855H915.45V-32.1035H918.85V-45.3421L915.61 -43.0571L915.05 -44.1171L919.05 -47.0381H920.13V-32.1035Z" fill="url(#paint48_linear_122_130)"/>
<path d="M918.93 -20.3523C920.356 -20.3523 921.436 -19.6377 922.17 -18.2086C922.916 -16.7953 923.29 -14.738 923.29 -12.0369C923.29 -9.33581 922.916 -7.27071 922.17 -5.84163C921.436 -4.41256 920.356 -3.69802 918.93 -3.69802C917.517 -3.69802 916.437 -4.41256 915.69 -5.84163C914.943 -7.27071 914.57 -9.33581 914.57 -12.0369C914.57 -14.7223 914.943 -16.7796 915.69 -18.2086C916.437 -19.6377 917.517 -20.3523 918.93 -20.3523ZM915.99 -12.0369C915.99 -10.121 916.137 -8.62127 916.43 -7.53768L920.87 -17.9731C920.403 -18.7112 919.756 -19.0802 918.93 -19.0802C918.01 -19.0802 917.29 -18.4992 916.77 -17.3371C916.25 -16.1907 915.99 -14.424 915.99 -12.0369ZM918.93 -4.99361C919.863 -4.99361 920.59 -5.56681 921.11 -6.71322C921.63 -7.87533 921.89 -9.64989 921.89 -12.0369C921.89 -14.0628 921.723 -15.6332 921.39 -16.7482L916.95 -6.21853C917.43 -5.40192 918.09 -4.99361 918.93 -4.99361Z" fill="url(#paint49_linear_122_130)"/>
<path d="M920.13 21.7393H923.07V22.9878H915.45V21.7393H918.85V8.50074L915.61 10.7857L915.05 9.72566L919.05 6.80469H920.13V21.7393Z" fill="url(#paint50_linear_122_130)"/>
<path d="M920.13 48.6607H923.07V49.9092H915.45V48.6607H918.85V35.4221L915.61 37.7071L915.05 36.6471L919.05 33.7261H920.13V48.6607Z" fill="url(#paint51_linear_122_130)"/>
<path d="M918.93 60.4119C920.356 60.4119 921.436 61.1265 922.17 62.5556C922.916 63.9689 923.29 66.0262 923.29 68.7273C923.29 71.4284 922.916 73.4935 922.17 74.9226C921.436 76.3516 920.356 77.0662 918.93 77.0662C917.517 77.0662 916.437 76.3516 915.69 74.9226C914.943 73.4935 914.57 71.4284 914.57 68.7273C914.57 66.0419 914.943 63.9846 915.69 62.5556C916.437 61.1265 917.517 60.4119 918.93 60.4119ZM915.99 68.7273C915.99 70.6432 916.137 72.1429 916.43 73.2265L920.87 62.7911C920.403 62.053 919.756 61.684 918.93 61.684C918.01 61.684 917.29 62.265 916.77 63.4271C916.25 64.5735 915.99 66.3403 915.99 68.7273ZM918.93 75.7706C919.863 75.7706 920.59 75.1974 921.11 74.051C921.63 72.8889 921.89 71.1143 921.89 68.7273C921.89 66.7014 921.723 65.131 921.39 64.016L916.95 74.5457C917.43 75.3623 918.09 75.7706 918.93 75.7706Z" fill="url(#paint52_linear_122_130)"/>
<path d="M920.13 102.504H923.07V103.752H915.45V102.504H918.85V89.2649L915.61 91.5499L915.05 90.4899L919.05 87.5689H920.13V102.504Z" fill="url(#paint53_linear_122_130)"/>
<path d="M918.93 114.255C920.356 114.255 921.436 114.969 922.17 116.398C922.916 117.812 923.29 119.869 923.29 122.57C923.29 125.271 922.916 127.336 922.17 128.765C921.436 130.194 920.356 130.909 918.93 130.909C917.517 130.909 916.437 130.194 915.69 128.765C914.943 127.336 914.57 125.271 914.57 122.57C914.57 119.885 914.943 117.827 915.69 116.398C916.437 114.969 917.517 114.255 918.93 114.255ZM915.99 122.57C915.99 124.486 916.137 125.986 916.43 127.069L920.87 116.634C920.403 115.896 919.756 115.527 918.93 115.527C918.01 115.527 917.29 116.108 916.77 117.27C916.25 118.416 915.99 120.183 915.99 122.57ZM918.93 129.613C919.863 129.613 920.59 129.04 921.11 127.894C921.63 126.732 921.89 124.957 921.89 122.57C921.89 120.544 921.723 118.974 921.39 117.859L916.95 128.388C917.43 129.205 918.09 129.613 918.93 129.613Z" fill="url(#paint54_linear_122_130)"/>
<path d="M918.93 141.176C920.356 141.176 921.436 141.891 922.17 143.32C922.916 144.733 923.29 146.79 923.29 149.491C923.29 152.193 922.916 154.258 922.17 155.687C921.436 157.116 920.356 157.83 918.93 157.83C917.517 157.83 916.437 157.116 915.69 155.687C914.943 154.258 914.57 152.193 914.57 149.491C914.57 146.806 914.943 144.749 915.69 143.32C916.437 141.891 917.517 141.176 918.93 141.176ZM915.99 149.491C915.99 151.407 916.137 152.907 916.43 153.991L920.87 143.555C920.403 142.817 919.756 142.448 918.93 142.448C918.01 142.448 917.29 143.029 916.77 144.191C916.25 145.338 915.99 147.104 915.99 149.491ZM918.93 156.535C919.863 156.535 920.59 155.962 921.11 154.815C921.63 153.653 921.89 151.879 921.89 149.491C921.89 147.466 921.723 145.895 921.39 144.78L916.95 155.31C917.43 156.126 918.09 156.535 918.93 156.535Z" fill="url(#paint55_linear_122_130)"/>
<path d="M920.13 183.268H923.07V184.516H915.45V183.268H918.85V170.029L915.61 172.314L915.05 171.254L919.05 168.333H920.13V183.268Z" fill="url(#paint56_linear_122_130)"/>
<path d="M918.93 195.019C920.356 195.019 921.436 195.733 922.17 197.163C922.916 198.576 923.29 200.633 923.29 203.334C923.29 206.035 922.916 208.1 922.17 209.53C921.436 210.959 920.356 211.673 918.93 211.673C917.517 211.673 916.437 210.959 915.69 209.53C914.943 208.1 914.57 206.035 914.57 203.334C914.57 200.649 914.943 198.592 915.69 197.163C916.437 195.733 917.517 195.019 918.93 195.019ZM915.99 203.334C915.99 205.25 916.137 206.75 916.43 207.834L920.87 197.398C920.403 196.66 919.756 196.291 918.93 196.291C918.01 196.291 917.29 196.872 916.77 198.034C916.25 199.181 915.99 200.947 915.99 203.334ZM918.93 210.378C919.863 210.378 920.59 209.804 921.11 208.658C921.63 207.496 921.89 205.721 921.89 203.334C921.89 201.308 921.723 199.738 921.39 198.623L916.95 209.153C917.43 209.969 918.09 210.378 918.93 210.378Z" fill="url(#paint57_linear_122_130)"/>
<path d="M920.13 237.111H923.07V238.359H915.45V237.111H918.85V223.872L915.61 226.157L915.05 225.097L919.05 222.176H920.13V237.111Z" fill="url(#paint58_linear_122_130)"/>
<path d="M920.13 264.032H923.07V265.28H915.45V264.032H918.85V250.793L915.61 253.078L915.05 252.018L919.05 249.097H920.13V264.032Z" fill="url(#paint59_linear_122_130)"/>
<path d="M956.07 -20.3523C957.497 -20.3523 958.577 -19.6377 959.31 -18.2086C960.057 -16.7953 960.43 -14.738 960.43 -12.0369C960.43 -9.33581 960.057 -7.27071 959.31 -5.84163C958.577 -4.41256 957.497 -3.69802 956.07 -3.69802C954.657 -3.69802 953.577 -4.41256 952.83 -5.84163C952.084 -7.27071 951.71 -9.33581 951.71 -12.0369C951.71 -14.7223 952.084 -16.7796 952.83 -18.2086C953.577 -19.6377 954.657 -20.3523 956.07 -20.3523ZM953.13 -12.0369C953.13 -10.121 953.277 -8.62127 953.57 -7.53768L958.01 -17.9731C957.543 -18.7112 956.897 -19.0802 956.07 -19.0802C955.15 -19.0802 954.43 -18.4992 953.91 -17.3371C953.39 -16.1907 953.13 -14.424 953.13 -12.0369ZM956.07 -4.99361C957.003 -4.99361 957.73 -5.56681 958.25 -6.71322C958.77 -7.87533 959.03 -9.64989 959.03 -12.0369C959.03 -14.0628 958.863 -15.6332 958.53 -16.7482L954.09 -6.21853C954.57 -5.40192 955.23 -4.99361 956.07 -4.99361Z" fill="url(#paint60_linear_122_130)"/>
<path d="M957.27 21.7393H960.21V22.9878H952.59V21.7393H955.99V8.50074L952.75 10.7857L952.19 9.72566L956.19 6.80469H957.27V21.7393Z" fill="url(#paint61_linear_122_130)"/>
<path d="M956.07 33.4905C957.497 33.4905 958.577 34.2051 959.31 35.6342C960.057 37.0475 960.43 39.1048 960.43 41.8059C960.43 44.507 960.057 46.5721 959.31 48.0012C958.577 49.4302 957.497 50.1448 956.07 50.1448C954.657 50.1448 953.577 49.4302 952.83 48.0012C952.084 46.5721 951.71 44.507 951.71 41.8059C951.71 39.1205 952.084 37.0632 952.83 35.6342C953.577 34.2051 954.657 33.4905 956.07 33.4905ZM953.13 41.8059C953.13 43.7218 953.277 45.2215 953.57 46.3051L958.01 35.8697C957.543 35.1316 956.897 34.7626 956.07 34.7626C955.15 34.7626 954.43 35.3436 953.91 36.5057C953.39 37.6521 953.13 39.4188 953.13 41.8059ZM956.07 48.8492C957.003 48.8492 957.73 48.276 958.25 47.1296C958.77 45.9675 959.03 44.1929 959.03 41.8059C959.03 39.78 958.863 38.2096 958.53 37.0946L954.09 47.6243C954.57 48.4409 955.23 48.8492 956.07 48.8492Z" fill="url(#paint62_linear_122_130)"/>
<path d="M956.07 60.4119C957.497 60.4119 958.577 61.1265 959.31 62.5556C960.057 63.9689 960.43 66.0262 960.43 68.7273C960.43 71.4284 960.057 73.4935 959.31 74.9226C958.577 76.3516 957.497 77.0662 956.07 77.0662C954.657 77.0662 953.577 76.3516 952.83 74.9226C952.084 73.4935 951.71 71.4284 951.71 68.7273C951.71 66.0419 952.084 63.9846 952.83 62.5556C953.577 61.1265 954.657 60.4119 956.07 60.4119ZM953.13 68.7273C953.13 70.6432 953.277 72.1429 953.57 73.2265L958.01 62.7911C957.543 62.053 956.897 61.684 956.07 61.684C955.15 61.684 954.43 62.265 953.91 63.4271C953.39 64.5735 953.13 66.3403 953.13 68.7273ZM956.07 75.7706C957.003 75.7706 957.73 75.1974 958.25 74.051C958.77 72.8889 959.03 71.1143 959.03 68.7273C959.03 66.7014 958.863 65.131 958.53 64.016L954.09 74.5457C954.57 75.3623 955.23 75.7706 956.07 75.7706Z" fill="url(#paint63_linear_122_130)"/>
<path d="M957.27 102.504H960.21V103.752H952.59V102.504H955.99V89.2649L952.75 91.5499L952.19 90.4899L956.19 87.5689H957.27V102.504Z" fill="url(#paint64_linear_122_130)"/>
<path d="M956.07 114.255C957.497 114.255 958.577 114.969 959.31 116.398C960.057 117.812 960.43 119.869 960.43 122.57C960.43 125.271 960.057 127.336 959.31 128.765C958.577 130.194 957.497 130.909 956.07 130.909C954.657 130.909 953.577 130.194 952.83 128.765C952.084 127.336 951.71 125.271 951.71 122.57C951.71 119.885 952.084 117.827 952.83 116.398C953.577 114.969 954.657 114.255 956.07 114.255ZM953.13 122.57C953.13 124.486 953.277 125.986 953.57 127.069L958.01 116.634C957.543 115.896 956.897 115.527 956.07 115.527C955.15 115.527 954.43 116.108 953.91 117.27C953.39 118.416 953.13 120.183 953.13 122.57ZM956.07 129.613C957.003 129.613 957.73 129.04 958.25 127.894C958.77 126.732 959.03 124.957 959.03 122.57C959.03 120.544 958.863 118.974 958.53 117.859L954.09 128.388C954.57 129.205 955.23 129.613 956.07 129.613Z" fill="url(#paint65_linear_122_130)"/>
<path d="M957.27 156.346H960.21V157.595H952.59V156.346H955.99V143.108L952.75 145.393L952.19 144.333L956.19 141.412H957.27V156.346Z" fill="url(#paint66_linear_122_130)"/>
<path d="M956.07 168.098C957.497 168.098 958.577 168.812 959.31 170.241C960.057 171.655 960.43 173.712 960.43 176.413C960.43 179.114 960.057 181.179 959.31 182.608C958.577 184.037 957.497 184.752 956.07 184.752C954.657 184.752 953.577 184.037 952.83 182.608C952.084 181.179 951.71 179.114 951.71 176.413C951.71 173.727 952.084 171.67 952.83 170.241C953.577 168.812 954.657 168.098 956.07 168.098ZM953.13 176.413C953.13 178.329 953.277 179.829 953.57 180.912L958.01 170.477C957.543 169.739 956.897 169.37 956.07 169.37C955.15 169.37 954.43 169.951 953.91 171.113C953.39 172.259 953.13 174.026 953.13 176.413ZM956.07 183.456C957.003 183.456 957.73 182.883 958.25 181.737C958.77 180.574 959.03 178.8 959.03 176.413C959.03 174.387 958.863 172.817 958.53 171.702L954.09 182.231C954.57 183.048 955.23 183.456 956.07 183.456Z" fill="url(#paint67_linear_122_130)"/>
<path d="M956.07 195.019C957.497 195.019 958.577 195.733 959.31 197.163C960.057 198.576 960.43 200.633 960.43 203.334C960.43 206.035 960.057 208.1 959.31 209.53C958.577 210.959 957.497 211.673 956.07 211.673C954.657 211.673 953.577 210.959 952.83 209.53C952.084 208.1 951.71 206.035 951.71 203.334C951.71 200.649 952.084 198.592 952.83 197.163C953.577 195.733 954.657 195.019 956.07 195.019ZM953.13 203.334C953.13 205.25 953.277 206.75 953.57 207.834L958.01 197.398C957.543 196.66 956.897 196.291 956.07 196.291C955.15 196.291 954.43 196.872 953.91 198.034C953.39 199.181 953.13 200.947 953.13 203.334ZM956.07 210.378C957.003 210.378 957.73 209.804 958.25 208.658C958.77 207.496 959.03 205.721 959.03 203.334C959.03 201.308 958.863 199.738 958.53 198.623L954.09 209.153C954.57 209.969 955.23 210.378 956.07 210.378Z" fill="url(#paint68_linear_122_130)"/>
<path d="M957.27 237.111H960.21V238.359H952.59V237.111H955.99V223.872L952.75 226.157L952.19 225.097L956.19 222.176H957.27V237.111Z" fill="url(#paint69_linear_122_130)"/>
<path d="M956.07 248.862C957.497 248.862 958.577 249.576 959.31 251.005C960.057 252.419 960.43 254.476 960.43 257.177C960.43 259.878 960.057 261.943 959.31 263.372C958.577 264.801 957.497 265.516 956.07 265.516C954.657 265.516 953.577 264.801 952.83 263.372C952.084 261.943 951.71 259.878 951.71 257.177C951.71 254.492 952.084 252.434 952.83 251.005C953.577 249.576 954.657 248.862 956.07 248.862ZM953.13 257.177C953.13 259.093 953.277 260.593 953.57 261.676L958.01 251.241C957.543 250.503 956.897 250.134 956.07 250.134C955.15 250.134 954.43 250.715 953.91 251.877C953.39 253.023 953.13 254.79 953.13 257.177ZM956.07 264.22C957.003 264.22 957.73 263.647 958.25 262.501C958.77 261.339 959.03 259.564 959.03 257.177C959.03 255.151 958.863 253.581 958.53 252.466L954.09 262.995C954.57 263.812 955.23 264.22 956.07 264.22Z" fill="url(#paint70_linear_122_130)"/>
<path d="M957.27 290.953H960.21V292.202H952.59V290.953H955.99V277.715L952.75 280L952.19 278.94L956.19 276.019H957.27V290.953Z" fill="url(#paint71_linear_122_130)"/>
<path d="M957.27 317.875H960.21V319.123H952.59V317.875H955.99V304.636L952.75 306.921L952.19 305.861L956.19 302.94H957.27V317.875Z" fill="url(#paint72_linear_122_130)"/>
<path d="M900.36 6.56913C901.786 6.56913 902.866 7.28368 903.599 8.71275C904.346 10.1261 904.719 12.1834 904.719 14.8845C904.719 17.5856 904.346 19.6507 903.599 21.0798C902.866 22.5088 901.786 23.2234 900.36 23.2234C898.946 23.2234 897.867 22.5088 897.12 21.0798C896.373 19.6507 896 17.5856 896 14.8845C896 12.1991 896.373 10.1418 897.12 8.71275C897.867 7.28368 898.946 6.56913 900.36 6.56913ZM897.42 14.8845C897.42 16.8004 897.567 18.3001 897.86 19.3837L902.3 8.94831C901.833 8.21022 901.186 7.84117 900.36 7.84117C899.44 7.84117 898.72 8.42222 898.2 9.58433C897.68 10.7307 897.42 12.4975 897.42 14.8845ZM900.36 21.9278C901.293 21.9278 902.02 21.3546 902.54 20.2082C903.06 19.0461 903.319 17.2715 903.319 14.8845C903.319 12.8586 903.153 11.2882 902.82 10.1732L898.38 20.7029C898.86 21.5195 899.52 21.9278 900.36 21.9278Z" fill="url(#paint73_linear_122_130)"/>
<path d="M900.36 33.4905C901.786 33.4905 902.866 34.2051 903.599 35.6342C904.346 37.0475 904.719 39.1048 904.719 41.8059C904.719 44.507 904.346 46.5721 903.599 48.0012C902.866 49.4302 901.786 50.1448 900.36 50.1448C898.946 50.1448 897.867 49.4302 897.12 48.0012C896.373 46.5721 896 44.507 896 41.8059C896 39.1205 896.373 37.0632 897.12 35.6342C897.867 34.2051 898.946 33.4905 900.36 33.4905ZM897.42 41.8059C897.42 43.7218 897.567 45.2215 897.86 46.3051L902.3 35.8697C901.833 35.1316 901.186 34.7626 900.36 34.7626C899.44 34.7626 898.72 35.3436 898.2 36.5057C897.68 37.6521 897.42 39.4188 897.42 41.8059ZM900.36 48.8492C901.293 48.8492 902.02 48.276 902.54 47.1296C903.06 45.9675 903.319 44.1929 903.319 41.8059C903.319 39.78 903.153 38.2096 902.82 37.0946L898.38 47.6243C898.86 48.4409 899.52 48.8492 900.36 48.8492Z" fill="url(#paint74_linear_122_130)"/>
<path d="M901.56 75.5821H904.499V76.8306H896.88V75.5821H900.28V62.3435L897.04 64.6285L896.48 63.5685L900.48 60.6475H901.56V75.5821Z" fill="url(#paint75_linear_122_130)"/>
<path d="M900.36 87.3333C901.786 87.3333 902.866 88.0479 903.599 89.477C904.346 90.8903 904.719 92.9476 904.719 95.6487C904.719 98.3498 904.346 100.415 903.599 101.844C902.866 103.273 901.786 103.988 900.36 103.988C898.946 103.988 897.867 103.273 897.12 101.844C896.373 100.415 896 98.3498 896 95.6487C896 92.9633 896.373 90.906 897.12 89.477C897.867 88.0479 898.946 87.3333 900.36 87.3333ZM897.42 95.6487C897.42 97.5646 897.567 99.0643 897.86 100.148L902.3 89.7125C901.833 88.9744 901.186 88.6054 900.36 88.6054C899.44 88.6054 898.72 89.1864 898.2 90.3485C897.68 91.4949 897.42 93.2617 897.42 95.6487ZM900.36 102.692C901.293 102.692 902.02 102.119 902.54 100.972C903.06 99.8103 903.319 98.0357 903.319 95.6487C903.319 93.6228 903.153 92.0524 902.82 90.9374L898.38 101.467C898.86 102.284 899.52 102.692 900.36 102.692Z" fill="url(#paint76_linear_122_130)"/>
<path d="M901.56 129.425H904.499V130.673H896.88V129.425H900.28V116.186L897.04 118.471L896.48 117.411L900.48 114.49H901.56V129.425Z" fill="url(#paint77_linear_122_130)"/>
<path d="M901.56 156.346H904.499V157.595H896.88V156.346H900.28V143.108L897.04 145.393L896.48 144.333L900.48 141.412H901.56V156.346Z" fill="url(#paint78_linear_122_130)"/>
<path d="M938.7 -32.1035H941.64V-30.855H934.02V-32.1035H937.42V-45.3421L934.18 -43.0571L933.62 -44.1171L937.62 -47.0381H938.7V-32.1035Z" fill="url(#paint79_linear_122_130)"/>
<path d="M937.5 -20.3523C938.927 -20.3523 940.006 -19.6377 940.74 -18.2086C941.486 -16.7953 941.86 -14.738 941.86 -12.0369C941.86 -9.33581 941.486 -7.27071 940.74 -5.84163C940.006 -4.41256 938.927 -3.69802 937.5 -3.69802C936.087 -3.69802 935.007 -4.41256 934.26 -5.84163C933.514 -7.27071 933.14 -9.33581 933.14 -12.0369C933.14 -14.7223 933.514 -16.7796 934.26 -18.2086C935.007 -19.6377 936.087 -20.3523 937.5 -20.3523ZM934.56 -12.0369C934.56 -10.121 934.707 -8.62127 935 -7.53768L939.44 -17.9731C938.973 -18.7112 938.327 -19.0802 937.5 -19.0802C936.58 -19.0802 935.86 -18.4992 935.34 -17.3371C934.82 -16.1907 934.56 -14.424 934.56 -12.0369ZM937.5 -4.99361C938.433 -4.99361 939.16 -5.56681 939.68 -6.71322C940.2 -7.87533 940.46 -9.64989 940.46 -12.0369C940.46 -14.0628 940.293 -15.6332 939.96 -16.7482L935.52 -6.21853C936 -5.40192 936.66 -4.99361 937.5 -4.99361Z" fill="url(#paint80_linear_122_130)"/>
<path d="M938.7 21.7393H941.64V22.9878H934.02V21.7393H937.42V8.50074L934.18 10.7857L933.62 9.72566L937.62 6.80469H938.7V21.7393Z" fill="url(#paint81_linear_122_130)"/>
<path d="M938.7 48.6607H941.64V49.9092H934.02V48.6607H937.42V35.4221L934.18 37.7071L933.62 36.6471L937.62 33.7261H938.7V48.6607Z" fill="url(#paint82_linear_122_130)"/>
<path d="M937.5 60.4119C938.927 60.4119 940.006 61.1265 940.74 62.5556C941.486 63.9689 941.86 66.0262 941.86 68.7273C941.86 71.4284 941.486 73.4935 940.74 74.9226C940.006 76.3516 938.927 77.0662 937.5 77.0662C936.087 77.0662 935.007 76.3516 934.26 74.9226C933.514 73.4935 933.14 71.4284 933.14 68.7273C933.14 66.0419 933.514 63.9846 934.26 62.5556C935.007 61.1265 936.087 60.4119 937.5 60.4119ZM934.56 68.7273C934.56 70.6432 934.707 72.1429 935 73.2265L939.44 62.7911C938.973 62.053 938.327 61.684 937.5 61.684C936.58 61.684 935.86 62.265 935.34 63.4271C934.82 64.5735 934.56 66.3403 934.56 68.7273ZM937.5 75.7706C938.433 75.7706 939.16 75.1974 939.68 74.051C940.2 72.8889 940.46 71.1143 940.46 68.7273C940.46 66.7014 940.293 65.131 939.96 64.016L935.52 74.5457C936 75.3623 936.66 75.7706 937.5 75.7706Z" fill="url(#paint83_linear_122_130)"/>
<path d="M938.7 102.504H941.64V103.752H934.02V102.504H937.42V89.2649L934.18 91.5499L933.62 90.4899L937.62 87.5689H938.7V102.504Z" fill="url(#paint84_linear_122_130)"/>
<path d="M938.7 129.425H941.64V130.673H934.02V129.425H937.42V116.186L934.18 118.471L933.62 117.411L937.62 114.49H938.7V129.425Z" fill="url(#paint85_linear_122_130)"/>
<path d="M937.5 141.176C938.927 141.176 940.006 141.891 940.74 143.32C941.486 144.733 941.86 146.79 941.86 149.491C941.86 152.193 941.486 154.258 940.74 155.687C940.006 157.116 938.927 157.83 937.5 157.83C936.087 157.83 935.007 157.116 934.26 155.687C933.514 154.258 933.14 152.193 933.14 149.491C933.14 146.806 933.514 144.749 934.26 143.32C935.007 141.891 936.087 141.176 937.5 141.176ZM934.56 149.491C934.56 151.407 934.707 152.907 935 153.991L939.44 143.555C938.973 142.817 938.327 142.448 937.5 142.448C936.58 142.448 935.86 143.029 935.34 144.191C934.82 145.338 934.56 147.104 934.56 149.491ZM937.5 156.535C938.433 156.535 939.16 155.962 939.68 154.815C940.2 153.653 940.46 151.879 940.46 149.491C940.46 147.466 940.293 145.895 939.96 144.78L935.52 155.31C936 156.126 936.66 156.535 937.5 156.535Z" fill="url(#paint86_linear_122_130)"/>
<path d="M938.7 183.268H941.64V184.516H934.02V183.268H937.42V170.029L934.18 172.314L933.62 171.254L937.62 168.333H938.7V183.268Z" fill="url(#paint87_linear_122_130)"/>
<path d="M937.5 195.019C938.927 195.019 940.006 195.733 940.74 197.163C941.486 198.576 941.86 200.633 941.86 203.334C941.86 206.035 941.486 208.1 940.74 209.53C940.006 210.959 938.927 211.673 937.5 211.673C936.087 211.673 935.007 210.959 934.26 209.53C933.514 208.1 933.14 206.035 933.14 203.334C933.14 200.649 933.514 198.592 934.26 197.163C935.007 195.733 936.087 195.019 937.5 195.019ZM934.56 203.334C934.56 205.25 934.707 206.75 935 207.834L939.44 197.398C938.973 196.66 938.327 196.291 937.5 196.291C936.58 196.291 935.86 196.872 935.34 198.034C934.82 199.181 934.56 200.947 934.56 203.334ZM937.5 210.378C938.433 210.378 939.16 209.804 939.68 208.658C940.2 207.496 940.46 205.721 940.46 203.334C940.46 201.308 940.293 199.738 939.96 198.623L935.52 209.153C936 209.969 936.66 210.378 937.5 210.378Z" fill="url(#paint88_linear_122_130)"/>
<path d="M974.64 -47.2737C976.067 -47.2737 977.147 -46.5591 977.88 -45.1301C978.627 -43.7167 979 -41.6594 979 -38.9583C979 -36.2572 978.627 -34.1921 977.88 -32.763C977.147 -31.334 976.067 -30.6194 974.64 -30.6194C973.227 -30.6194 972.147 -31.334 971.401 -32.763C970.654 -34.1921 970.281 -36.2572 970.281 -38.9583C970.281 -41.6437 970.654 -43.701 971.401 -45.1301C972.147 -46.5591 973.227 -47.2737 974.64 -47.2737ZM971.7 -38.9583C971.7 -37.0424 971.847 -35.5427 972.14 -34.4591L976.58 -44.8945C976.114 -45.6326 975.467 -46.0016 974.64 -46.0016C973.72 -46.0016 973 -45.4206 972.48 -44.2585C971.96 -43.1121 971.7 -41.3454 971.7 -38.9583ZM974.64 -31.915C975.574 -31.915 976.3 -32.4882 976.82 -33.6346C977.34 -34.7967 977.6 -36.5713 977.6 -38.9583C977.6 -40.9842 977.433 -42.5546 977.1 -43.6696L972.66 -33.1399C973.14 -32.3233 973.8 -31.915 974.64 -31.915Z" fill="url(#paint89_linear_122_130)"/>
<path d="M975.84 -5.18206H978.78V-3.93358H971.161V-5.18206H974.56V-18.4207L971.321 -16.1357L970.761 -17.1957L974.76 -20.1167H975.84V-5.18206Z" fill="url(#paint90_linear_122_130)"/>
<path d="M975.84 21.7393H978.78V22.9878H971.161V21.7393H974.56V8.50074L971.321 10.7857L970.761 9.72566L974.76 6.80469H975.84V21.7393Z" fill="url(#paint91_linear_122_130)"/>
<path d="M974.64 33.4905C976.067 33.4905 977.147 34.2051 977.88 35.6342C978.627 37.0475 979 39.1048 979 41.8059C979 44.507 978.627 46.5721 977.88 48.0012C977.147 49.4302 976.067 50.1448 974.64 50.1448C973.227 50.1448 972.147 49.4302 971.401 48.0012C970.654 46.5721 970.281 44.507 970.281 41.8059C970.281 39.1205 970.654 37.0632 971.401 35.6342C972.147 34.2051 973.227 33.4905 974.64 33.4905ZM971.7 41.8059C971.7 43.7218 971.847 45.2215 972.14 46.3051L976.58 35.8697C976.114 35.1316 975.467 34.7626 974.64 34.7626C973.72 34.7626 973 35.3436 972.48 36.5057C971.96 37.6521 971.7 39.4188 971.7 41.8059ZM974.64 48.8492C975.574 48.8492 976.3 48.276 976.82 47.1296C977.34 45.9675 977.6 44.1929 977.6 41.8059C977.6 39.78 977.433 38.2096 977.1 37.0946L972.66 47.6243C973.14 48.4409 973.8 48.8492 974.64 48.8492Z" fill="url(#paint92_linear_122_130)"/>
<path d="M974.64 60.4119C976.067 60.4119 977.147 61.1265 977.88 62.5556C978.627 63.9689 979 66.0262 979 68.7273C979 71.4284 978.627 73.4935 977.88 74.9226C977.147 76.3516 976.067 77.0662 974.64 77.0662C973.227 77.0662 972.147 76.3516 971.401 74.9226C970.654 73.4935 970.281 71.4284 970.281 68.7273C970.281 66.0419 970.654 63.9846 971.401 62.5556C972.147 61.1265 973.227 60.4119 974.64 60.4119ZM971.7 68.7273C971.7 70.6432 971.847 72.1429 972.14 73.2265L976.58 62.7911C976.114 62.053 975.467 61.684 974.64 61.684C973.72 61.684 973 62.265 972.48 63.4271C971.96 64.5735 971.7 66.3403 971.7 68.7273ZM974.64 75.7706C975.574 75.7706 976.3 75.1974 976.82 74.051C977.34 72.8889 977.6 71.1143 977.6 68.7273C977.6 66.7014 977.433 65.131 977.1 64.016L972.66 74.5457C973.14 75.3623 973.8 75.7706 974.64 75.7706Z" fill="url(#paint93_linear_122_130)"/>
</g>
</g>
<defs>
<filter id="filter0_f_122_130" x="-559.19" y="-812.19" width="2141.38" height="1627.18" filterUnits="userSpaceOnUse" color-interpolation-filters="sRGB">
<feFlood flood-opacity="0" result="BackgroundImageFix"/>
<feBlend mode="normal" in="SourceGraphic" in2="BackgroundImageFix" result="shape"/>
<feGaussianBlur stdDeviation="200.095" result="effect1_foregroundBlur_122_130"/>
</filter>
<linearGradient id="paint0_linear_122_130" x1="51.5" y1="280.146" x2="51.5" y2="647.929" gradientUnits="userSpaceOnUse">
<stop stop-color="#F7DD43"/>
<stop offset="1" stop-color="#F7DD43" stop-opacity="0"/>
</linearGradient>
<linearGradient id="paint1_linear_122_130" x1="51.5" y1="280.146" x2="51.5" y2="647.929" gradientUnits="userSpaceOnUse">
<stop stop-color="#F7DD43"/>
<stop offset="1" stop-color="#F7DD43" stop-opacity="0"/>
</linearGradient>
<linearGradient id="paint2_linear_122_130" x1="51.5" y1="280.146" x2="51.5" y2="647.929" gradientUnits="userSpaceOnUse">
<stop stop-color="#F7DD43"/>
<stop offset="1" stop-color="#F7DD43" stop-opacity="0"/>
</linearGradient>
<linearGradient id="paint3_linear_122_130" x1="51.5" y1="280.146" x2="51.5" y2="647.929" gradientUnits="userSpaceOnUse">
<stop stop-color="#F7DD43"/>
<stop offset="1" stop-color="#F7DD43" stop-opacity="0"/>
</linearGradient>
<linearGradient id="paint4_linear_122_130" x1="51.5" y1="280.146" x2="51.5" y2="647.929" gradientUnits="userSpaceOnUse">
<stop stop-color="#F7DD43"/>
<stop offset="1" stop-color="#F7DD43" stop-opacity="0"/>
</linearGradient>
<linearGradient id="paint5_linear_122_130" x1="51.5" y1="280.146" x2="51.5" y2="647.929" gradientUnits="userSpaceOnUse">
<stop stop-color="#F7DD43"/>
<stop offset="1" stop-color="#F7DD43" stop-opacity="0"/>
</linearGradient>
<linearGradient id="paint6_linear_122_130" x1="51.5" y1="280.146" x2="51.5" y2="647.929" gradientUnits="userSpaceOnUse">
<stop stop-color="#F7DD43"/>
<stop offset="1" stop-color="#F7DD43" stop-opacity="0"/>
</linearGradient>
<linearGradient id="paint7_linear_122_130" x1="51.5" y1="280.146" x2="51.5" y2="647.929" gradientUnits="userSpaceOnUse">
<stop stop-color="#F7DD43"/>
<stop offset="1" stop-color="#F7DD43" stop-opacity="0"/>
</linearGradient>
<linearGradient id="paint8_linear_122_130" x1="51.5" y1="280.146" x2="51.5" y2="647.929" gradientUnits="userSpaceOnUse">
<stop stop-color="#F7DD43"/>
<stop offset="1" stop-color="#F7DD43" stop-opacity="0"/>
</linearGradient>
<linearGradient id="paint9_linear_122_130" x1="51.5" y1="280.146" x2="51.5" y2="647.929" gradientUnits="userSpaceOnUse">
<stop stop-color="#F7DD43"/>
<stop offset="1" stop-color="#F7DD43" stop-opacity="0"/>
</linearGradient>
<linearGradient id="paint10_linear_122_130" x1="51.5" y1="280.146" x2="51.5" y2="647.929" gradientUnits="userSpaceOnUse">
<stop stop-color="#F7DD43"/>
<stop offset="1" stop-color="#F7DD43" stop-opacity="0"/>
</linearGradient>
<linearGradient id="paint11_linear_122_130" x1="51.5" y1="280.146" x2="51.5" y2="647.929" gradientUnits="userSpaceOnUse">
<stop stop-color="#F7DD43"/>
<stop offset="1" stop-color="#F7DD43" stop-opacity="0"/>
</linearGradient>
<linearGradient id="paint12_linear_122_130" x1="51.5" y1="280.146" x2="51.5" y2="647.929" gradientUnits="userSpaceOnUse">
<stop stop-color="#F7DD43"/>
<stop offset="1" stop-color="#F7DD43" stop-opacity="0"/>
</linearGradient>
<linearGradient id="paint13_linear_122_130" x1="51.5" y1="280.146" x2="51.5" y2="647.929" gradientUnits="userSpaceOnUse">
<stop stop-color="#F7DD43"/>
<stop offset="1" stop-color="#F7DD43" stop-opacity="0"/>
</linearGradient>
<linearGradient id="paint14_linear_122_130" x1="51.5" y1="280.146" x2="51.5" y2="647.929" gradientUnits="userSpaceOnUse">
<stop stop-color="#F7DD43"/>
<stop offset="1" stop-color="#F7DD43" stop-opacity="0"/>
</linearGradient>
<linearGradient id="paint15_linear_122_130" x1="51.5" y1="280.146" x2="51.5" y2="647.929" gradientUnits="userSpaceOnUse">
<stop stop-color="#F7DD43"/>
<stop offset="1" stop-color="#F7DD43" stop-opacity="0"/>
</linearGradient>
<linearGradient id="paint16_linear_122_130" x1="51.5" y1="280.146" x2="51.5" y2="647.929" gradientUnits="userSpaceOnUse">
<stop stop-color="#F7DD43"/>
<stop offset="1" stop-color="#F7DD43" stop-opacity="0"/>
</linearGradient>
<linearGradient id="paint17_linear_122_130" x1="51.5" y1="280.146" x2="51.5" y2="647.929" gradientUnits="userSpaceOnUse">
<stop stop-color="#F7DD43"/>
<stop offset="1" stop-color="#F7DD43" stop-opacity="0"/>
</linearGradient>
<linearGradient id="paint18_linear_122_130" x1="51.5" y1="280.146" x2="51.5" y2="647.929" gradientUnits="userSpaceOnUse">
<stop stop-color="#F7DD43"/>
<stop offset="1" stop-color="#F7DD43" stop-opacity="0"/>
</linearGradient>
<linearGradient id="paint19_linear_122_130" x1="51.5" y1="280.146" x2="51.5" y2="647.929" gradientUnits="userSpaceOnUse">
<stop stop-color="#F7DD43"/>
<stop offset="1" stop-color="#F7DD43" stop-opacity="0"/>
</linearGradient>
<linearGradient id="paint20_linear_122_130" x1="51.5" y1="280.146" x2="51.5" y2="647.929" gradientUnits="userSpaceOnUse">
<stop stop-color="#F7DD43"/>
<stop offset="1" stop-color="#F7DD43" stop-opacity="0"/>
</linearGradient>
<linearGradient id="paint21_linear_122_130" x1="51.5" y1="280.146" x2="51.5" y2="647.929" gradientUnits="userSpaceOnUse">
<stop stop-color="#F7DD43"/>
<stop offset="1" stop-color="#F7DD43" stop-opacity="0"/>
</linearGradient>
<linearGradient id="paint22_linear_122_130" x1="51.5" y1="280.146" x2="51.5" y2="647.929" gradientUnits="userSpaceOnUse">
<stop stop-color="#F7DD43"/>
<stop offset="1" stop-color="#F7DD43" stop-opacity="0"/>
</linearGradient>
<linearGradient id="paint23_linear_122_130" x1="51.5" y1="280.146" x2="51.5" y2="647.929" gradientUnits="userSpaceOnUse">
<stop stop-color="#F7DD43"/>
<stop offset="1" stop-color="#F7DD43" stop-opacity="0"/>
</linearGradient>
<linearGradient id="paint24_linear_122_130" x1="51.5" y1="280.146" x2="51.5" y2="647.929" gradientUnits="userSpaceOnUse">
<stop stop-color="#F7DD43"/>
<stop offset="1" stop-color="#F7DD43" stop-opacity="0"/>
</linearGradient>
<linearGradient id="paint25_linear_122_130" x1="51.5" y1="280.146" x2="51.5" y2="647.929" gradientUnits="userSpaceOnUse">
<stop stop-color="#F7DD43"/>
<stop offset="1" stop-color="#F7DD43" stop-opacity="0"/>
</linearGradient>
<linearGradient id="paint26_linear_122_130" x1="51.5" y1="280.146" x2="51.5" y2="647.929" gradientUnits="userSpaceOnUse">
<stop stop-color="#F7DD43"/>
<stop offset="1" stop-color="#F7DD43" stop-opacity="0"/>
</linearGradient>
<linearGradient id="paint27_linear_122_130" x1="51.5" y1="280.146" x2="51.5" y2="647.929" gradientUnits="userSpaceOnUse">
<stop stop-color="#F7DD43"/>
<stop offset="1" stop-color="#F7DD43" stop-opacity="0"/>
</linearGradient>
<linearGradient id="paint28_linear_122_130" x1="51.5" y1="280.146" x2="51.5" y2="647.929" gradientUnits="userSpaceOnUse">
<stop stop-color="#F7DD43"/>
<stop offset="1" stop-color="#F7DD43" stop-opacity="0"/>
</linearGradient>
<linearGradient id="paint29_linear_122_130" x1="51.5" y1="280.146" x2="51.5" y2="647.929" gradientUnits="userSpaceOnUse">
<stop stop-color="#F7DD43"/>
<stop offset="1" stop-color="#F7DD43" stop-opacity="0"/>
</linearGradient>
<linearGradient id="paint30_linear_122_130" x1="51.5" y1="280.146" x2="51.5" y2="647.929" gradientUnits="userSpaceOnUse">
<stop stop-color="#F7DD43"/>
<stop offset="1" stop-color="#F7DD43" stop-opacity="0"/>
</linearGradient>
<linearGradient id="paint31_linear_122_130" x1="51.5" y1="280.146" x2="51.5" y2="647.929" gradientUnits="userSpaceOnUse">
<stop stop-color="#F7DD43"/>
<stop offset="1" stop-color="#F7DD43" stop-opacity="0"/>
</linearGradient>
<linearGradient id="paint32_linear_122_130" x1="51.5" y1="280.146" x2="51.5" y2="647.929" gradientUnits="userSpaceOnUse">
<stop stop-color="#F7DD43"/>
<stop offset="1" stop-color="#F7DD43" stop-opacity="0"/>
</linearGradient>
<linearGradient id="paint33_linear_122_130" x1="51.5" y1="280.146" x2="51.5" y2="647.929" gradientUnits="userSpaceOnUse">
<stop stop-color="#F7DD43"/>
<stop offset="1" stop-color="#F7DD43" stop-opacity="0"/>
</linearGradient>
<linearGradient id="paint34_linear_122_130" x1="51.5" y1="280.146" x2="51.5" y2="647.929" gradientUnits="userSpaceOnUse">
<stop stop-color="#F7DD43"/>
<stop offset="1" stop-color="#F7DD43" stop-opacity="0"/>
</linearGradient>
<linearGradient id="paint35_linear_122_130" x1="51.5" y1="280.146" x2="51.5" y2="647.929" gradientUnits="userSpaceOnUse">
<stop stop-color="#F7DD43"/>
<stop offset="1" stop-color="#F7DD43" stop-opacity="0"/>
</linearGradient>
<linearGradient id="paint36_linear_122_130" x1="51.5" y1="280.146" x2="51.5" y2="647.929" gradientUnits="userSpaceOnUse">
<stop stop-color="#F7DD43"/>
<stop offset="1" stop-color="#F7DD43" stop-opacity="0"/>
</linearGradient>
<linearGradient id="paint37_linear_122_130" x1="51.5" y1="280.146" x2="51.5" y2="647.929" gradientUnits="userSpaceOnUse">
<stop stop-color="#F7DD43"/>
<stop offset="1" stop-color="#F7DD43" stop-opacity="0"/>
</linearGradient>
<linearGradient id="paint38_linear_122_130" x1="51.5" y1="280.146" x2="51.5" y2="647.929" gradientUnits="userSpaceOnUse">
<stop stop-color="#F7DD43"/>
<stop offset="1" stop-color="#F7DD43" stop-opacity="0"/>
</linearGradient>
<linearGradient id="paint39_linear_122_130" x1="51.5" y1="280.146" x2="51.5" y2="647.929" gradientUnits="userSpaceOnUse">
<stop stop-color="#F7DD43"/>
<stop offset="1" stop-color="#F7DD43" stop-opacity="0"/>
</linearGradient>
<linearGradient id="paint40_linear_122_130" x1="51.5" y1="280.146" x2="51.5" y2="647.929" gradientUnits="userSpaceOnUse">
<stop stop-color="#F7DD43"/>
<stop offset="1" stop-color="#F7DD43" stop-opacity="0"/>
</linearGradient>
<linearGradient id="paint41_linear_122_130" x1="51.5" y1="280.146" x2="51.5" y2="647.929" gradientUnits="userSpaceOnUse">
<stop stop-color="#F7DD43"/>
<stop offset="1" stop-color="#F7DD43" stop-opacity="0"/>
</linearGradient>
<linearGradient id="paint42_linear_122_130" x1="51.5" y1="280.146" x2="51.5" y2="647.929" gradientUnits="userSpaceOnUse">
<stop stop-color="#F7DD43"/>
<stop offset="1" stop-color="#F7DD43" stop-opacity="0"/>
</linearGradient>
<linearGradient id="paint43_linear_122_130" x1="51.5" y1="280.146" x2="51.5" y2="647.929" gradientUnits="userSpaceOnUse">
<stop stop-color="#F7DD43"/>
<stop offset="1" stop-color="#F7DD43" stop-opacity="0"/>
</linearGradient>
<linearGradient id="paint44_linear_122_130" x1="51.5" y1="280.146" x2="51.5" y2="647.929" gradientUnits="userSpaceOnUse">
<stop stop-color="#F7DD43"/>
<stop offset="1" stop-color="#F7DD43" stop-opacity="0"/>
</linearGradient>
<linearGradient id="paint45_linear_122_130" x1="51.5" y1="280.146" x2="51.5" y2="647.929" gradientUnits="userSpaceOnUse">
<stop stop-color="#F7DD43"/>
<stop offset="1" stop-color="#F7DD43" stop-opacity="0"/>
</linearGradient>
<linearGradient id="paint46_linear_122_130" x1="51.5" y1="280.146" x2="51.5" y2="647.929" gradientUnits="userSpaceOnUse">
<stop stop-color="#F7DD43"/>
<stop offset="1" stop-color="#F7DD43" stop-opacity="0"/>
</linearGradient>
<linearGradient id="paint47_linear_122_130" x1="937.5" y1="-74.1951" x2="937.5" y2="278.75" gradientUnits="userSpaceOnUse">
<stop stop-color="#F7DD43"/>
<stop offset="1" stop-color="#F7DD43" stop-opacity="0"/>
</linearGradient>
<linearGradient id="paint48_linear_122_130" x1="937.5" y1="-74.1951" x2="937.5" y2="278.75" gradientUnits="userSpaceOnUse">
<stop stop-color="#F7DD43"/>
<stop offset="1" stop-color="#F7DD43" stop-opacity="0"/>
</linearGradient>
<linearGradient id="paint49_linear_122_130" x1="937.5" y1="-74.1951" x2="937.5" y2="278.75" gradientUnits="userSpaceOnUse">
<stop stop-color="#F7DD43"/>
<stop offset="1" stop-color="#F7DD43" stop-opacity="0"/>
</linearGradient>
<linearGradient id="paint50_linear_122_130" x1="937.5" y1="-74.1951" x2="937.5" y2="278.75" gradientUnits="userSpaceOnUse">
<stop stop-color="#F7DD43"/>
<stop offset="1" stop-color="#F7DD43" stop-opacity="0"/>
</linearGradient>
<linearGradient id="paint51_linear_122_130" x1="937.5" y1="-74.1951" x2="937.5" y2="278.75" gradientUnits="userSpaceOnUse">
<stop stop-color="#F7DD43"/>
<stop offset="1" stop-color="#F7DD43" stop-opacity="0"/>
</linearGradient>
<linearGradient id="paint52_linear_122_130" x1="937.5" y1="-74.1951" x2="937.5" y2="278.75" gradientUnits="userSpaceOnUse">
<stop stop-color="#F7DD43"/>
<stop offset="1" stop-color="#F7DD43" stop-opacity="0"/>
</linearGradient>
<linearGradient id="paint53_linear_122_130" x1="937.5" y1="-74.1951" x2="937.5" y2="278.75" gradientUnits="userSpaceOnUse">
<stop stop-color="#F7DD43"/>
<stop offset="1" stop-color="#F7DD43" stop-opacity="0"/>
</linearGradient>
<linearGradient id="paint54_linear_122_130" x1="937.5" y1="-74.1951" x2="937.5" y2="278.75" gradientUnits="userSpaceOnUse">
<stop stop-color="#F7DD43"/>
<stop offset="1" stop-color="#F7DD43" stop-opacity="0"/>
</linearGradient>
<linearGradient id="paint55_linear_122_130" x1="937.5" y1="-74.1951" x2="937.5" y2="278.75" gradientUnits="userSpaceOnUse">
<stop stop-color="#F7DD43"/>
<stop offset="1" stop-color="#F7DD43" stop-opacity="0"/>
</linearGradient>
<linearGradient id="paint56_linear_122_130" x1="937.5" y1="-74.1951" x2="937.5" y2="278.75" gradientUnits="userSpaceOnUse">
<stop stop-color="#F7DD43"/>
<stop offset="1" stop-color="#F7DD43" stop-opacity="0"/>
</linearGradient>
<linearGradient id="paint57_linear_122_130" x1="937.5" y1="-74.1951" x2="937.5" y2="278.75" gradientUnits="userSpaceOnUse">
<stop stop-color="#F7DD43"/>
<stop offset="1" stop-color="#F7DD43" stop-opacity="0"/>
</linearGradient>
<linearGradient id="paint58_linear_122_130" x1="937.5" y1="-74.1951" x2="937.5" y2="278.75" gradientUnits="userSpaceOnUse">
<stop stop-color="#F7DD43"/>
<stop offset="1" stop-color="#F7DD43" stop-opacity="0"/>
</linearGradient>
<linearGradient id="paint59_linear_122_130" x1="937.5" y1="-74.1951" x2="937.5" y2="278.75" gradientUnits="userSpaceOnUse">
<stop stop-color="#F7DD43"/>
<stop offset="1" stop-color="#F7DD43" stop-opacity="0"/>
</linearGradient>
<linearGradient id="paint60_linear_122_130" x1="937.5" y1="-74.1951" x2="937.5" y2="278.75" gradientUnits="userSpaceOnUse">
<stop stop-color="#F7DD43"/>
<stop offset="1" stop-color="#F7DD43" stop-opacity="0"/>
</linearGradient>
<linearGradient id="paint61_linear_122_130" x1="937.5" y1="-74.1951" x2="937.5" y2="278.75" gradientUnits="userSpaceOnUse">
<stop stop-color="#F7DD43"/>
<stop offset="1" stop-color="#F7DD43" stop-opacity="0"/>
</linearGradient>
<linearGradient id="paint62_linear_122_130" x1="937.5" y1="-74.1951" x2="937.5" y2="278.75" gradientUnits="userSpaceOnUse">
<stop stop-color="#F7DD43"/>
<stop offset="1" stop-color="#F7DD43" stop-opacity="0"/>
</linearGradient>
<linearGradient id="paint63_linear_122_130" x1="937.5" y1="-74.1951" x2="937.5" y2="278.75" gradientUnits="userSpaceOnUse">
<stop stop-color="#F7DD43"/>
<stop offset="1" stop-color="#F7DD43" stop-opacity="0"/>
</linearGradient>
<linearGradient id="paint64_linear_122_130" x1="937.5" y1="-74.1951" x2="937.5" y2="278.75" gradientUnits="userSpaceOnUse">
<stop stop-color="#F7DD43"/>
<stop offset="1" stop-color="#F7DD43" stop-opacity="0"/>
</linearGradient>
<linearGradient id="paint65_linear_122_130" x1="937.5" y1="-74.1951" x2="937.5" y2="278.75" gradientUnits="userSpaceOnUse">
<stop stop-color="#F7DD43"/>
<stop offset="1" stop-color="#F7DD43" stop-opacity="0"/>
</linearGradient>
<linearGradient id="paint66_linear_122_130" x1="937.5" y1="-74.1951" x2="937.5" y2="278.75" gradientUnits="userSpaceOnUse">
<stop stop-color="#F7DD43"/>
<stop offset="1" stop-color="#F7DD43" stop-opacity="0"/>
</linearGradient>
<linearGradient id="paint67_linear_122_130" x1="937.5" y1="-74.1951" x2="937.5" y2="278.75" gradientUnits="userSpaceOnUse">
<stop stop-color="#F7DD43"/>
<stop offset="1" stop-color="#F7DD43" stop-opacity="0"/>
</linearGradient>
<linearGradient id="paint68_linear_122_130" x1="937.5" y1="-74.1951" x2="937.5" y2="278.75" gradientUnits="userSpaceOnUse">
<stop stop-color="#F7DD43"/>
<stop offset="1" stop-color="#F7DD43" stop-opacity="0"/>
</linearGradient>
<linearGradient id="paint69_linear_122_130" x1="937.5" y1="-74.1951" x2="937.5" y2="278.75" gradientUnits="userSpaceOnUse">
<stop stop-color="#F7DD43"/>
<stop offset="1" stop-color="#F7DD43" stop-opacity="0"/>
</linearGradient>
<linearGradient id="paint70_linear_122_130" x1="937.5" y1="-74.1951" x2="937.5" y2="278.75" gradientUnits="userSpaceOnUse">
<stop stop-color="#F7DD43"/>
<stop offset="1" stop-color="#F7DD43" stop-opacity="0"/>
</linearGradient>
<linearGradient id="paint71_linear_122_130" x1="937.5" y1="-74.1951" x2="937.5" y2="278.75" gradientUnits="userSpaceOnUse">
<stop stop-color="#F7DD43"/>
<stop offset="1" stop-color="#F7DD43" stop-opacity="0"/>
</linearGradient>
<linearGradient id="paint72_linear_122_130" x1="937.5" y1="-74.1951" x2="937.5" y2="278.75" gradientUnits="userSpaceOnUse">
<stop stop-color="#F7DD43"/>
<stop offset="1" stop-color="#F7DD43" stop-opacity="0"/>
</linearGradient>
<linearGradient id="paint73_linear_122_130" x1="937.5" y1="-74.1951" x2="937.5" y2="278.75" gradientUnits="userSpaceOnUse">
<stop stop-color="#F7DD43"/>
<stop offset="1" stop-color="#F7DD43" stop-opacity="0"/>
</linearGradient>
<linearGradient id="paint74_linear_122_130" x1="937.5" y1="-74.1951" x2="937.5" y2="278.75" gradientUnits="userSpaceOnUse">
<stop stop-color="#F7DD43"/>
<stop offset="1" stop-color="#F7DD43" stop-opacity="0"/>
</linearGradient>
<linearGradient id="paint75_linear_122_130" x1="937.5" y1="-74.1951" x2="937.5" y2="278.75" gradientUnits="userSpaceOnUse">
<stop stop-color="#F7DD43"/>
<stop offset="1" stop-color="#F7DD43" stop-opacity="0"/>
</linearGradient>
<linearGradient id="paint76_linear_122_130" x1="937.5" y1="-74.1951" x2="937.5" y2="278.75" gradientUnits="userSpaceOnUse">
<stop stop-color="#F7DD43"/>
<stop offset="1" stop-color="#F7DD43" stop-opacity="0"/>
</linearGradient>
<linearGradient id="paint77_linear_122_130" x1="937.5" y1="-74.1951" x2="937.5" y2="278.75" gradientUnits="userSpaceOnUse">
<stop stop-color="#F7DD43"/>
<stop offset="1" stop-color="#F7DD43" stop-opacity="0"/>
</linearGradient>
<linearGradient id="paint78_linear_122_130" x1="937.5" y1="-74.1951" x2="937.5" y2="278.75" gradientUnits="userSpaceOnUse">
<stop stop-color="#F7DD43"/>
<stop offset="1" stop-color="#F7DD43" stop-opacity="0"/>
</linearGradient>
<linearGradient id="paint79_linear_122_130" x1="937.5" y1="-74.1951" x2="937.5" y2="278.75" gradientUnits="userSpaceOnUse">
<stop stop-color="#F7DD43"/>
<stop offset="1" stop-color="#F7DD43" stop-opacity="0"/>
</linearGradient>
<linearGradient id="paint80_linear_122_130" x1="937.5" y1="-74.1951" x2="937.5" y2="278.75" gradientUnits="userSpaceOnUse">
<stop stop-color="#F7DD43"/>
<stop offset="1" stop-color="#F7DD43" stop-opacity="0"/>
</linearGradient>
<linearGradient id="paint81_linear_122_130" x1="937.5" y1="-74.1951" x2="937.5" y2="278.75" gradientUnits="userSpaceOnUse">
<stop stop-color="#F7DD43"/>
<stop offset="1" stop-color="#F7DD43" stop-opacity="0"/>
</linearGradient>
<linearGradient id="paint82_linear_122_130" x1="937.5" y1="-74.1951" x2="937.5" y2="278.75" gradientUnits="userSpaceOnUse">
<stop stop-color="#F7DD43"/>
<stop offset="1" stop-color="#F7DD43" stop-opacity="0"/>
</linearGradient>
<linearGradient id="paint83_linear_122_130" x1="937.5" y1="-74.1951" x2="937.5" y2="278.75" gradientUnits="userSpaceOnUse">
<stop stop-color="#F7DD43"/>
<stop offset="1" stop-color="#F7DD43" stop-opacity="0"/>
</linearGradient>
<linearGradient id="paint84_linear_122_130" x1="937.5" y1="-74.1951" x2="937.5" y2="278.75" gradientUnits="userSpaceOnUse">
<stop stop-color="#F7DD43"/>
<stop offset="1" stop-color="#F7DD43" stop-opacity="0"/>
</linearGradient>
<linearGradient id="paint85_linear_122_130" x1="937.5" y1="-74.1951" x2="937.5" y2="278.75" gradientUnits="userSpaceOnUse">
<stop stop-color="#F7DD43"/>
<stop offset="1" stop-color="#F7DD43" stop-opacity="0"/>
</linearGradient>
<linearGradient id="paint86_linear_122_130" x1="937.5" y1="-74.1951" x2="937.5" y2="278.75" gradientUnits="userSpaceOnUse">
<stop stop-color="#F7DD43"/>
<stop offset="1" stop-color="#F7DD43" stop-opacity="0"/>
</linearGradient>
<linearGradient id="paint87_linear_122_130" x1="937.5" y1="-74.1951" x2="937.5" y2="278.75" gradientUnits="userSpaceOnUse">
<stop stop-color="#F7DD43"/>
<stop offset="1" stop-color="#F7DD43" stop-opacity="0"/>
</linearGradient>
<linearGradient id="paint88_linear_122_130" x1="937.5" y1="-74.1951" x2="937.5" y2="278.75" gradientUnits="userSpaceOnUse">
<stop stop-color="#F7DD43"/>
<stop offset="1" stop-color="#F7DD43" stop-opacity="0"/>
</linearGradient>
<linearGradient id="paint89_linear_122_130" x1="937.5" y1="-74.1951" x2="937.5" y2="278.75" gradientUnits="userSpaceOnUse">
<stop stop-color="#F7DD43"/>
<stop offset="1" stop-color="#F7DD43" stop-opacity="0"/>
</linearGradient>
<linearGradient id="paint90_linear_122_130" x1="937.5" y1="-74.1951" x2="937.5" y2="278.75" gradientUnits="userSpaceOnUse">
<stop stop-color="#F7DD43"/>
<stop offset="1" stop-color="#F7DD43" stop-opacity="0"/>
</linearGradient>
<linearGradient id="paint91_linear_122_130" x1="937.5" y1="-74.1951" x2="937.5" y2="278.75" gradientUnits="userSpaceOnUse">
<stop stop-color="#F7DD43"/>
<stop offset="1" stop-color="#F7DD43" stop-opacity="0"/>
</linearGradient>
<linearGradient id="paint92_linear_122_130" x1="937.5" y1="-74.1951" x2="937.5" y2="278.75" gradientUnits="userSpaceOnUse">
<stop stop-color="#F7DD43"/>
<stop offset="1" stop-color="#F7DD43" stop-opacity="0"/>
</linearGradient>
<linearGradient id="paint93_linear_122_130" x1="937.5" y1="-74.1951" x2="937.5" y2="278.75" gradientUnits="userSpaceOnUse">
<stop stop-color="#F7DD43"/>
<stop offset="1" stop-color="#F7DD43" stop-opacity="0"/>
</linearGradient>
<clipPath id="clip0_122_130">
<rect width="1024" height="753" fill="white"/>
</clipPath>
</defs>
</svg>
