<svg width="1024" height="753" viewBox="0 0 1024 753" fill="none" xmlns="http://www.w3.org/2000/svg">
<g clip-path="url(#clip0_122_130)">
<rect width="1024" height="753" fill="#121214"/>
<g opacity="0.2" filter="url(#filter0_f_122_130)">
<ellipse cx="535.76" cy="3.55302" rx="670.5" ry="413.398" transform="rotate(10.1544 535.76 3.55302)" fill="#B3A659"/>
</g>
<path d="M14.6609 193.404C16.1328 193.668 17.1158 194.6 17.6098 196.202C18.1205 197.789 18.1277 199.969 17.6315 202.739C17.1353 205.51 16.3707 207.559 15.3378 208.887C14.3187 210.217 13.0732 210.75 11.6013 210.487C10.1432 210.226 9.1602 209.293 8.6524 207.689C8.1446 206.086 8.13882 203.898 8.63505 201.128C9.1284 198.373 9.89152 196.332 10.9244 195.004C11.9573 193.676 13.2028 193.143 14.6609 193.404ZM10.1001 201.39C9.74809 203.355 9.62389 204.921 9.72745 206.086L16.2253 196.203C15.8795 195.36 15.2801 194.862 14.4272 194.709C13.4781 194.539 12.6285 195.002 11.8785 196.098C11.1314 197.178 10.5386 198.942 10.1001 201.39ZM11.8393 209.158C12.8022 209.33 13.6573 208.877 14.4044 207.797C15.1543 206.701 15.7486 204.929 16.1871 202.48C16.5593 200.403 16.6759 198.761 16.5368 197.556L10.0216 207.536C10.3668 208.462 10.9727 209.003 11.8393 209.158Z" fill="url(#paint0_linear_122_130)" fill-opacity="0.6"/>
<path d="M8.16615 236.8L11.1994 237.343L10.97 238.624L3.10842 237.216L3.33778 235.935L6.84557 236.564L9.27769 222.985L5.51519 224.73L5.13218 223.539L9.79562 221.282L10.9099 221.481L8.16615 236.8Z" fill="url(#paint1_linear_122_130)" fill-opacity="0.6"/>
<path d="M4.76925 248.632C6.24114 248.896 7.22411 249.828 7.71815 251.429C8.22884 253.017 8.23606 255.196 7.73983 257.967C7.24359 260.737 6.47904 262.787 5.44616 264.114C4.42704 265.445 3.18152 265.978 1.70963 265.714C0.251488 265.453 -0.731479 264.521 -1.23928 262.917C-1.74707 261.313 -1.75286 259.126 -1.25662 256.355C-0.763276 253.601 -0.000161405 251.56 1.03272 250.232C2.0656 248.904 3.31111 248.371 4.76925 248.632ZM0.208395 256.618C-0.143583 258.583 -0.267792 260.148 -0.164229 261.314L6.33366 251.431C5.9878 250.587 5.38843 250.089 4.53556 249.937C3.58639 249.767 2.73682 250.23 1.98684 251.326C1.23974 252.405 0.646927 254.169 0.208395 256.618ZM1.94765 264.386C2.91057 264.558 3.76558 264.104 4.51268 263.025C5.26266 261.929 5.85691 260.157 6.29544 257.708C6.66762 255.63 6.78417 253.989 6.64511 252.783L0.129913 262.763C0.475107 263.69 1.08102 264.23 1.94765 264.386Z" fill="url(#paint2_linear_122_130)" fill-opacity="0.6"/>
<path d="M-1.72553 292.028L1.30768 292.571L1.07832 293.852L-6.78326 292.444L-6.5539 291.163L-3.0461 291.791L-0.613989 278.212L-4.37649 279.957L-4.7595 278.766L-0.0960618 276.509L1.01818 276.709L-1.72553 292.028Z" fill="url(#paint3_linear_122_130)" fill-opacity="0.6"/>
<path d="M-6.67137 319.642L-3.63816 320.185L-3.86752 321.466L-11.7291 320.057L-11.4997 318.777L-7.99194 319.405L-5.55983 305.826L-9.32232 307.571L-9.70534 306.38L-5.0419 304.123L-3.92766 304.323L-6.67137 319.642Z" fill="url(#paint4_linear_122_130)" fill-opacity="0.6"/>
<path d="M-10.0683 331.473C-8.59637 331.737 -7.6134 332.669 -7.11936 334.271C-6.60868 335.858 -6.60146 338.038 -7.09769 340.808C-7.59392 343.579 -8.35848 345.628 -9.39136 346.956C-10.4105 348.286 -11.656 348.82 -13.1279 348.556C-14.586 348.295 -15.569 347.362 -16.0768 345.758C-16.5846 344.155 -16.5904 341.967 -16.0941 339.197C-15.6008 336.442 -14.8377 334.401 -13.8048 333.073C-12.7719 331.746 -11.5264 331.212 -10.0683 331.473ZM-14.6291 339.459C-14.9811 341.424 -15.1053 342.99 -15.0017 344.156L-8.50385 334.272C-8.84972 333.429 -9.44908 332.931 -10.302 332.778C-11.2511 332.608 -12.1007 333.071 -12.8507 334.167C-13.5978 335.247 -14.1906 337.011 -14.6291 339.459ZM-12.8899 347.227C-11.9269 347.399 -11.0719 346.946 -10.3248 345.866C-9.57486 344.77 -8.9806 342.998 -8.54207 340.55C-8.1699 338.472 -8.05334 336.83 -8.1924 335.625L-14.7076 345.605C-14.3624 346.531 -13.7565 347.072 -12.8899 347.227Z" fill="url(#paint5_linear_122_130)" fill-opacity="0.6"/>
<path d="M-16.563 374.869L-13.5298 375.413L-13.7592 376.693L-21.6208 375.285L-21.3914 374.004L-17.8836 374.633L-15.4515 361.054L-19.214 362.799L-19.597 361.608L-14.9336 359.351L-13.8193 359.55L-16.563 374.869Z" fill="url(#paint6_linear_122_130)" fill-opacity="0.6"/>
<path d="M-19.9599 386.701C-18.488 386.965 -17.5051 387.897 -17.011 389.498C-16.5004 391.086 -16.4931 393.265 -16.9894 396.036C-17.4856 398.806 -18.2502 400.856 -19.283 402.183C-20.3022 403.514 -21.5477 404.047 -23.0196 403.784C-24.4777 403.522 -25.4607 402.59 -25.9685 400.986C-26.4763 399.382 -26.4821 397.195 -25.9858 394.425C-25.4925 391.67 -24.7294 389.629 -23.6965 388.301C-22.6636 386.973 -21.4181 386.44 -19.9599 386.701ZM-24.5208 394.687C-24.8728 396.652 -24.997 398.217 -24.8934 399.383L-18.3955 389.5C-18.7414 388.656 -19.3408 388.158 -20.1936 388.006C-21.1428 387.836 -21.9924 388.299 -22.7424 389.395C-23.4895 390.474 -24.0823 392.238 -24.5208 394.687ZM-22.7815 402.455C-21.8186 402.627 -20.9636 402.173 -20.2165 401.094C-19.4665 399.998 -18.8723 398.226 -18.4338 395.777C-18.0616 393.699 -17.945 392.058 -18.0841 390.852L-24.5993 400.832C-24.2541 401.759 -23.6482 402.299 -22.7815 402.455Z" fill="url(#paint7_linear_122_130)" fill-opacity="0.6"/>
<path d="M-24.9058 414.315C-23.4339 414.578 -22.4509 415.511 -21.9569 417.112C-21.4462 418.7 -21.439 420.879 -21.9352 423.65C-22.4314 426.42 -23.196 428.469 -24.2289 429.797C-25.248 431.128 -26.4935 431.661 -27.9654 431.397C-29.4235 431.136 -30.4065 430.204 -30.9143 428.6C-31.4221 426.996 -31.4279 424.809 -30.9317 422.038C-30.4383 419.284 -29.6752 417.243 -28.6423 415.915C-27.6094 414.587 -26.3639 414.054 -24.9058 414.315ZM-29.4666 422.301C-29.8186 424.266 -29.9428 425.831 -29.8393 426.997L-23.3414 417.114C-23.6872 416.27 -24.2866 415.772 -25.1395 415.62C-26.0886 415.449 -26.9382 415.912 -27.6882 417.008C-28.4353 418.088 -29.0281 419.852 -29.4666 422.301ZM-27.7274 430.068C-26.7645 430.241 -25.9095 429.787 -25.1624 428.707C-24.4124 427.612 -23.8181 425.839 -23.3796 423.391C-23.0074 421.313 -22.8909 419.671 -23.0299 418.466L-29.5451 428.446C-29.1999 429.372 -28.594 429.913 -27.7274 430.068Z" fill="url(#paint8_linear_122_130)" fill-opacity="0.6"/>
<path d="M-31.4006 457.711L-28.3674 458.254L-28.5967 459.535L-36.4583 458.126L-36.2289 456.846L-32.7211 457.474L-30.289 443.895L-34.0515 445.64L-34.4345 444.449L-29.7711 442.192L-28.6569 442.392L-31.4006 457.711Z" fill="url(#paint9_linear_122_130)" fill-opacity="0.6"/>
<path d="M-34.7975 469.542C-33.3256 469.806 -32.3426 470.738 -31.8486 472.34C-31.3379 473.928 -31.3306 476.107 -31.8269 478.877C-32.3231 481.648 -33.0877 483.697 -34.1205 485.025C-35.1397 486.355 -36.3852 486.889 -37.8571 486.625C-39.3152 486.364 -40.2982 485.431 -40.806 483.828C-41.3138 482.224 -41.3196 480.037 -40.8233 477.266C-40.33 474.511 -39.5669 472.47 -38.534 471.142C-37.5011 469.815 -36.2556 469.281 -34.7975 469.542ZM-39.3583 477.528C-39.7103 479.494 -39.8345 481.059 -39.7309 482.225L-33.233 472.341C-33.5789 471.498 -34.1783 471 -35.0312 470.847C-35.9803 470.677 -36.8299 471.14 -37.5799 472.236C-38.327 473.316 -38.9198 475.08 -39.3583 477.528ZM-37.6191 485.296C-36.6561 485.469 -35.8011 485.015 -35.054 483.935C-34.3041 482.839 -33.7098 481.067 -33.2713 478.619C-32.8991 476.541 -32.7825 474.899 -32.9216 473.694L-39.4368 483.674C-39.0916 484.6 -38.4857 485.141 -37.6191 485.296Z" fill="url(#paint10_linear_122_130)" fill-opacity="0.6"/>
<path d="M-41.2922 512.938L-38.259 513.482L-38.4884 514.762L-46.35 513.354L-46.1206 512.074L-42.6128 512.702L-40.1807 499.123L-43.9432 500.868L-44.3262 499.677L-39.6628 497.42L-38.5485 497.62L-41.2922 512.938Z" fill="url(#paint11_linear_122_130)" fill-opacity="0.6"/>
<path d="M-46.2381 540.552L-43.2049 541.095L-43.4342 542.376L-51.2958 540.968L-51.0664 539.687L-47.5587 540.316L-45.1265 526.736L-48.889 528.482L-49.272 527.291L-44.6086 525.034L-43.4944 525.233L-46.2381 540.552Z" fill="url(#paint12_linear_122_130)" fill-opacity="0.6"/>
<path d="M43.0896 255.495C44.5615 255.759 45.5445 256.691 46.0386 258.293C46.5492 259.881 46.5565 262.06 46.0602 264.83C45.564 267.601 44.7994 269.65 43.7666 270.978C42.7474 272.308 41.5019 272.842 40.03 272.578C38.5719 272.317 37.5889 271.384 37.0811 269.78C36.5733 268.177 36.5675 265.989 37.0638 263.219C37.5571 260.464 38.3202 258.423 39.3531 257.095C40.386 255.768 41.6315 255.234 43.0896 255.495ZM38.5288 263.481C38.1768 265.446 38.0526 267.012 38.1562 268.178L44.6541 258.294C44.3082 257.451 43.7088 256.953 42.856 256.8C41.9068 256.63 41.0572 257.093 40.3072 258.189C39.5601 259.269 38.9673 261.033 38.5288 263.481ZM40.268 271.249C41.231 271.422 42.086 270.968 42.8331 269.888C43.5831 268.792 44.1773 267.02 44.6158 264.572C44.988 262.494 45.1046 260.852 44.9655 259.647L38.4503 269.627C38.7955 270.553 39.4014 271.094 40.268 271.249Z" fill="url(#paint13_linear_122_130)" fill-opacity="0.6"/>
<path d="M36.5949 298.891L39.6281 299.435L39.3987 300.715L31.5371 299.307L31.7665 298.026L35.2743 298.655L37.7064 285.076L33.9439 286.821L33.5609 285.63L38.2243 283.373L39.3386 283.573L36.5949 298.891Z" fill="url(#paint14_linear_122_130)" fill-opacity="0.6"/>
<path d="M33.198 310.723C34.6699 310.987 35.6528 311.919 36.1469 313.52C36.6576 315.108 36.6648 317.287 36.1685 320.058C35.6723 322.828 34.9078 324.878 33.8749 326.206C32.8558 327.536 31.6102 328.069 30.1384 327.806C28.6802 327.544 27.6972 326.612 27.1894 325.008C26.6816 323.404 26.6759 321.217 27.1721 318.447C27.6654 315.692 28.4286 313.651 29.4614 312.323C30.4943 310.995 31.7398 310.462 33.198 310.723ZM28.6371 318.709C28.2851 320.674 28.1609 322.24 28.2645 323.405L34.7624 313.522C34.4165 312.679 33.8172 312.18 32.9643 312.028C32.0151 311.858 31.1655 312.321 30.4156 313.417C29.6685 314.496 29.0756 316.261 28.6371 318.709ZM30.3764 326.477C31.3393 326.649 32.1943 326.195 32.9414 325.116C33.6914 324.02 34.2856 322.248 34.7242 319.799C35.0963 317.721 35.2129 316.08 35.0738 314.874L28.5586 324.854C28.9038 325.781 29.5097 326.321 30.3764 326.477Z" fill="url(#paint15_linear_122_130)" fill-opacity="0.6"/>
<path d="M28.2521 338.337C29.724 338.6 30.707 339.533 31.201 341.134C31.7117 342.722 31.7189 344.901 31.2227 347.672C30.7265 350.442 29.9619 352.491 28.929 353.819C27.9099 355.15 26.6644 355.683 25.1925 355.419C23.7344 355.158 22.7514 354.226 22.2436 352.622C21.7358 351.018 21.73 348.831 22.2263 346.06C22.7196 343.306 23.4827 341.265 24.5156 339.937C25.5485 338.609 26.794 338.076 28.2521 338.337ZM23.6913 346.323C23.3393 348.288 23.2151 349.853 23.3187 351.019L29.8165 341.136C29.4707 340.292 28.8713 339.794 28.0184 339.642C27.0693 339.472 26.2197 339.934 25.4697 341.03C24.7226 342.11 24.1298 343.874 23.6913 346.323ZM25.4305 354.09C26.3935 354.263 27.2485 353.809 27.9956 352.729C28.7455 351.634 29.3398 349.861 29.7783 347.413C30.1505 345.335 30.2671 343.693 30.128 342.488L23.6128 352.468C23.958 353.394 24.5639 353.935 25.4305 354.09Z" fill="url(#paint16_linear_122_130)" fill-opacity="0.6"/>
<path d="M21.7573 381.733L24.7906 382.276L24.5612 383.557L16.6996 382.149L16.929 380.868L20.4368 381.496L22.8689 367.917L19.1064 369.662L18.7234 368.471L23.3868 366.214L24.5011 366.414L21.7573 381.733Z" fill="url(#paint17_linear_122_130)" fill-opacity="0.6"/>
<path d="M18.3605 393.564C19.8324 393.828 20.8153 394.761 21.3094 396.362C21.82 397.95 21.8273 400.129 21.331 402.899C20.8348 405.67 20.0702 407.719 19.0374 409.047C18.0182 410.377 16.7727 410.911 15.3008 410.647C13.8427 410.386 12.8597 409.453 12.3519 407.85C11.8441 406.246 11.8383 404.059 12.3346 401.288C12.8279 398.534 13.591 396.492 14.6239 395.164C15.6568 393.837 16.9023 393.303 18.3605 393.564ZM13.7996 401.55C13.4476 403.516 13.3234 405.081 13.427 406.247L19.9249 396.363C19.579 395.52 18.9796 395.022 18.1268 394.869C17.1776 394.699 16.328 395.162 15.578 396.258C14.8309 397.338 14.2381 399.102 13.7996 401.55ZM15.5389 409.318C16.5018 409.491 17.3568 409.037 18.1039 407.957C18.8539 406.861 19.4481 405.089 19.8866 402.641C20.2588 400.563 20.3754 398.921 20.2363 397.716L13.7211 407.696C14.0663 408.622 14.6722 409.163 15.5389 409.318Z" fill="url(#paint18_linear_122_130)" fill-opacity="0.6"/>
<path d="M11.8657 436.96L14.8989 437.504L14.6695 438.784L6.80795 437.376L7.03731 436.096L10.5451 436.724L12.9772 423.145L9.21472 424.89L8.8317 423.699L13.4951 421.442L14.6094 421.642L11.8657 436.96Z" fill="url(#paint19_linear_122_130)" fill-opacity="0.6"/>
<path d="M8.46878 448.792C9.94067 449.056 10.9236 449.988 11.4177 451.589C11.9284 453.177 11.9356 455.356 11.4394 458.127C10.9431 460.898 10.1786 462.947 9.14569 464.275C8.12657 465.605 6.88105 466.138 5.40916 465.875C3.95102 465.613 2.96805 464.681 2.46025 463.077C1.95246 461.473 1.94667 459.286 2.44291 456.516C2.93625 453.761 3.69936 451.72 4.73224 450.392C5.76512 449.064 7.01064 448.531 8.46878 448.792ZM3.90792 456.778C3.55594 458.743 3.43174 460.309 3.5353 461.474L10.0332 451.591C9.68733 450.748 9.08796 450.25 8.23509 450.097C7.28592 449.927 6.43634 450.39 5.68636 451.486C4.93926 452.565 4.34645 454.33 3.90792 456.778ZM5.64717 464.546C6.6101 464.718 7.4651 464.265 8.2122 463.185C8.96218 462.089 9.55644 460.317 9.99497 457.868C10.3671 455.79 10.4837 454.149 10.3446 452.943L3.82944 462.923C4.17463 463.85 4.78054 464.391 5.64717 464.546Z" fill="url(#paint20_linear_122_130)" fill-opacity="0.6"/>
<path d="M3.52294 476.406C4.99483 476.669 5.9778 477.602 6.47184 479.203C6.98252 480.791 6.98975 482.97 6.49352 485.741C5.99728 488.511 5.23273 490.561 4.19985 491.888C3.18073 493.219 1.93522 493.752 0.463319 493.488C-0.994821 493.227 -1.97779 492.295 -2.48559 490.691C-2.99338 489.087 -2.99917 486.9 -2.50293 484.129C-2.00959 481.375 -1.24647 479.334 -0.213595 478.006C0.819285 476.678 2.0648 476.145 3.52294 476.406ZM-1.03792 484.392C-1.3899 486.357 -1.5141 487.922 -1.41054 489.088L5.08735 479.205C4.74149 478.361 4.14212 477.863 3.28925 477.711C2.34008 477.541 1.4905 478.004 0.740518 479.099C-0.0065778 480.179 -0.599387 481.943 -1.03792 484.392ZM0.701334 492.16C1.66426 492.332 2.51926 491.878 3.26636 490.799C4.01634 489.703 4.6106 487.93 5.04913 485.482C5.42131 483.404 5.53786 481.762 5.3988 480.557L-1.1164 490.537C-0.771205 491.464 -0.165297 492.004 0.701334 492.16Z" fill="url(#paint21_linear_122_130)" fill-opacity="0.6"/>
<path d="M-2.97185 519.802L0.0613641 520.345L-0.167995 521.626L-8.02957 520.218L-7.80021 518.937L-4.29242 519.565L-1.8603 505.986L-5.6228 507.731L-6.00582 506.54L-1.34237 504.283L-0.228139 504.483L-2.97185 519.802Z" fill="url(#paint22_linear_122_130)" fill-opacity="0.6"/>
<path d="M-6.36874 531.633C-4.89684 531.897 -3.91388 532.83 -3.41984 534.431C-2.90915 536.019 -2.90193 538.198 -3.39816 540.968C-3.89439 543.739 -4.65895 545.788 -5.69183 547.116C-6.71095 548.446 -7.95646 548.98 -9.42836 548.716C-10.8865 548.455 -11.8695 547.522 -12.3773 545.919C-12.8851 544.315 -12.8908 542.128 -12.3946 539.357C-11.9013 536.603 -11.1382 534.561 -10.1053 533.234C-9.07239 531.906 -7.82688 531.372 -6.36874 531.633ZM-10.9296 539.619C-11.2816 541.585 -11.4058 543.15 -11.3022 544.316L-4.80433 534.432C-5.15019 533.589 -5.74956 533.091 -6.60243 532.938C-7.5516 532.768 -8.40118 533.231 -9.15116 534.327C-9.89825 535.407 -10.4911 537.171 -10.9296 539.619ZM-9.19034 547.387C-8.22742 547.56 -7.37242 547.106 -6.62532 546.026C-5.87534 544.93 -5.28108 543.158 -4.84255 540.71C-4.47037 538.632 -4.35382 536.99 -4.49288 535.785L-11.0081 545.765C-10.6629 546.691 -10.057 547.232 -9.19034 547.387Z" fill="url(#paint23_linear_122_130)" fill-opacity="0.6"/>
<path d="M-12.8635 575.029L-9.83031 575.573L-10.0597 576.853L-17.9212 575.445L-17.6919 574.165L-14.1841 574.793L-11.752 561.214L-15.5145 562.959L-15.8975 561.768L-11.2341 559.511L-10.1198 559.711L-12.8635 575.029Z" fill="url(#paint24_linear_122_130)" fill-opacity="0.6"/>
<path d="M-17.8094 602.643L-14.7762 603.187L-15.0055 604.467L-22.8671 603.059L-22.6377 601.778L-19.1299 602.407L-16.6978 588.828L-20.4603 590.573L-20.8433 589.382L-16.1799 587.125L-15.0657 587.324L-17.8094 602.643Z" fill="url(#paint25_linear_122_130)" fill-opacity="0.6"/>
<path d="M-19.3368 272.814C-17.8649 273.078 -16.8819 274.01 -16.3879 275.611C-15.8772 277.199 -15.87 279.378 -16.3662 282.149C-16.8624 284.919 -17.627 286.969 -18.6599 288.297C-19.679 289.627 -20.9245 290.16 -22.3964 289.897C-23.8545 289.635 -24.8375 288.703 -25.3453 287.099C-25.8531 285.495 -25.8589 283.308 -25.3627 280.538C-24.8693 277.783 -24.1062 275.742 -23.0733 274.414C-22.0404 273.086 -20.7949 272.553 -19.3368 272.814ZM-23.8976 280.8C-24.2496 282.765 -24.3738 284.331 -24.2703 285.496L-17.7724 275.613C-18.1182 274.77 -18.7176 274.271 -19.5705 274.119C-20.5196 273.949 -21.3692 274.412 -22.1192 275.508C-22.8663 276.587 -23.4591 278.351 -23.8976 280.8ZM-22.1584 288.568C-21.1955 288.74 -20.3405 288.286 -19.5934 287.207C-18.8434 286.111 -18.2491 284.339 -17.8106 281.89C-17.4384 279.812 -17.3219 278.171 -17.4609 276.965L-23.9761 286.945C-23.6309 287.872 -23.025 288.412 -22.1584 288.568Z" fill="url(#paint26_linear_122_130)" fill-opacity="0.6"/>
<path d="M-24.2826 300.428C-22.8107 300.691 -21.8278 301.624 -21.3337 303.225C-20.823 304.813 -20.8158 306.992 -21.312 309.763C-21.8083 312.533 -22.5728 314.582 -23.6057 315.91C-24.6248 317.241 -25.8704 317.774 -27.3422 317.51C-28.8004 317.249 -29.7834 316.317 -30.2912 314.713C-30.7989 313.109 -30.8047 310.922 -30.3085 308.151C-29.8152 305.397 -29.052 303.356 -28.0192 302.028C-26.9863 300.7 -25.7408 300.167 -24.2826 300.428ZM-28.8435 308.414C-29.1955 310.379 -29.3197 311.944 -29.2161 313.11L-22.7182 303.227C-23.0641 302.383 -23.6634 301.885 -24.5163 301.733C-25.4655 301.563 -26.3151 302.025 -27.065 303.121C-27.8121 304.201 -28.4049 305.965 -28.8435 308.414ZM-27.1042 316.181C-26.1413 316.354 -25.2863 315.9 -24.5392 314.82C-23.7892 313.725 -23.195 311.952 -22.7564 309.504C-22.3843 307.426 -22.2677 305.784 -22.4068 304.579L-28.922 314.559C-28.5768 315.485 -27.9709 316.026 -27.1042 316.181Z" fill="url(#paint27_linear_122_130)" fill-opacity="0.6"/>
<path d="M-30.7774 343.824L-27.7442 344.367L-27.9736 345.648L-35.8351 344.24L-35.6058 342.959L-32.098 343.587L-29.6659 330.008L-33.4284 331.753L-33.8114 330.562L-29.1479 328.305L-28.0337 328.505L-30.7774 343.824Z" fill="url(#paint28_linear_122_130)" fill-opacity="0.6"/>
<path d="M-34.1743 355.655C-32.7024 355.919 -31.7194 356.852 -31.2254 358.453C-30.7147 360.041 -30.7075 362.22 -31.2037 364.99C-31.7 367.761 -32.4645 369.81 -33.4974 371.138C-34.5165 372.468 -35.762 373.002 -37.2339 372.738C-38.6921 372.477 -39.675 371.544 -40.1828 369.941C-40.6906 368.337 -40.6964 366.15 -40.2002 363.379C-39.7068 360.624 -38.9437 358.583 -37.9108 357.255C-36.878 355.928 -35.6324 355.394 -34.1743 355.655ZM-38.7352 363.641C-39.0871 365.607 -39.2113 367.172 -39.1078 368.338L-32.6099 358.454C-32.9558 357.611 -33.5551 357.113 -34.408 356.96C-35.3572 356.79 -36.2067 357.253 -36.9567 358.349C-37.7038 359.429 -38.2966 361.193 -38.7352 363.641ZM-36.9959 371.409C-36.033 371.582 -35.178 371.128 -34.4309 370.048C-33.6809 368.952 -33.0866 367.18 -32.6481 364.732C-32.2759 362.654 -32.1594 361.012 -32.2984 359.807L-38.8136 369.787C-38.4684 370.713 -37.8625 371.254 -36.9959 371.409Z" fill="url(#paint29_linear_122_130)" fill-opacity="0.6"/>
<path d="M-40.6691 399.051L-37.6359 399.595L-37.8652 400.875L-45.7268 399.467L-45.4975 398.187L-41.9897 398.815L-39.5575 385.236L-43.32 386.981L-43.7031 385.79L-39.0396 383.533L-37.9254 383.733L-40.6691 399.051Z" fill="url(#paint30_linear_122_130)" fill-opacity="0.6"/>
<path d="M-45.6149 426.665L-42.5817 427.208L-42.8111 428.489L-50.6726 427.081L-50.4433 425.8L-46.9355 426.429L-44.5034 412.85L-48.2659 414.595L-48.6489 413.404L-43.9855 411.147L-42.8712 411.346L-45.6149 426.665Z" fill="url(#paint31_linear_122_130)" fill-opacity="0.6"/>
<path d="M27.3263 240.232L30.3596 240.775L30.1302 242.056L22.2686 240.648L22.498 239.367L26.0058 239.995L28.4379 226.416L24.6754 228.161L24.2924 226.971L28.9558 224.714L30.0701 224.913L27.3263 240.232Z" fill="url(#paint32_linear_122_130)" fill-opacity="0.6"/>
<path d="M23.9294 252.064C25.4013 252.327 26.3843 253.26 26.8784 254.861C27.389 256.449 27.3963 258.628 26.9 261.399C26.4038 264.169 25.6392 266.218 24.6064 267.546C23.5872 268.877 22.3417 269.41 20.8698 269.146C19.4117 268.885 18.4287 267.953 17.9209 266.349C17.4131 264.745 17.4073 262.558 17.9036 259.787C18.3969 257.033 19.16 254.992 20.1929 253.664C21.2258 252.336 22.4713 251.802 23.9294 252.064ZM19.3686 260.05C19.0166 262.015 18.8924 263.58 18.996 264.746L25.4939 254.862C25.148 254.019 24.5486 253.521 23.6958 253.368C22.7466 253.198 21.897 253.661 21.147 254.757C20.3999 255.837 19.8071 257.601 19.3686 260.05ZM21.1078 267.817C22.0708 267.99 22.9258 267.536 23.6729 266.456C24.4229 265.36 25.0171 263.588 25.4556 261.14C25.8278 259.062 25.9444 257.42 25.8053 256.215L19.2901 266.195C19.6353 267.121 20.2412 267.662 21.1078 267.817Z" fill="url(#paint33_linear_122_130)" fill-opacity="0.6"/>
<path d="M17.4347 295.46L20.4679 296.003L20.2385 297.283L12.3769 295.875L12.6063 294.595L16.1141 295.223L18.5462 281.644L14.7837 283.389L14.4007 282.198L19.0641 279.941L20.1784 280.141L17.4347 295.46Z" fill="url(#paint34_linear_122_130)" fill-opacity="0.6"/>
<path d="M12.4888 323.073L15.522 323.617L15.2927 324.897L7.4311 323.489L7.66046 322.209L11.1683 322.837L13.6004 309.258L9.83788 311.003L9.45486 309.812L14.1183 307.555L15.2325 307.755L12.4888 323.073Z" fill="url(#paint35_linear_122_130)" fill-opacity="0.6"/>
<path d="M9.09193 334.905C10.5638 335.169 11.5468 336.101 12.0408 337.703C12.5515 339.29 12.5587 341.469 12.0625 344.24C11.5663 347.011 10.8017 349.06 9.76884 350.388C8.74972 351.718 7.50421 352.251 6.03231 351.988C4.57417 351.726 3.5912 350.794 3.08341 349.19C2.57561 347.586 2.56983 345.399 3.06606 342.629C3.55941 339.874 4.32252 337.833 5.3554 336.505C6.38828 335.177 7.63379 334.644 9.09193 334.905ZM4.53108 342.891C4.1791 344.856 4.05489 346.422 4.15846 347.587L10.6563 337.704C10.3105 336.861 9.71112 336.363 8.85824 336.21C7.90908 336.04 7.0595 336.503 6.30952 337.599C5.56242 338.678 4.96961 340.443 4.53108 342.891ZM6.27033 350.659C7.23325 350.831 8.08826 350.378 8.83536 349.298C9.58534 348.202 10.1796 346.43 10.6181 343.981C10.9903 341.903 11.1069 340.262 10.9678 339.056L4.45259 349.036C4.79779 349.963 5.4037 350.504 6.27033 350.659Z" fill="url(#paint36_linear_122_130)" fill-opacity="0.6"/>
<path d="M2.59715 378.301L5.63036 378.844L5.401 380.125L-2.46058 378.717L-2.23122 377.436L1.27658 378.064L3.70869 364.485L-0.053802 366.23L-0.436815 365.04L4.22662 362.783L5.34086 362.982L2.59715 378.301Z" fill="url(#paint37_linear_122_130)" fill-opacity="0.6"/>
<path d="M-2.34869 405.915L0.684526 406.458L0.455163 407.739L-7.40642 406.331L-7.17705 405.05L-3.66926 405.678L-1.23715 392.099L-4.99964 393.844L-5.38265 392.653L-0.719221 390.396L0.395018 390.596L-2.34869 405.915Z" fill="url(#paint38_linear_122_130)" fill-opacity="0.6"/>
<path d="M-5.74558 417.746C-4.27369 418.01 -3.29072 418.943 -2.79668 420.544C-2.286 422.132 -2.27878 424.311 -2.77501 427.081C-3.27124 429.852 -4.03579 431.901 -5.06867 433.229C-6.08779 434.559 -7.33331 435.093 -8.8052 434.829C-10.2633 434.568 -11.2463 433.635 -11.7541 432.032C-12.2619 430.428 -12.2677 428.241 -11.7715 425.47C-11.2781 422.716 -10.515 420.674 -9.48212 419.347C-8.44924 418.019 -7.20372 417.485 -5.74558 417.746ZM-10.3064 425.732C-10.6584 427.698 -10.7826 429.263 -10.6791 430.429L-4.18117 420.545C-4.52703 419.702 -5.1264 419.204 -5.97927 419.051C-6.92844 418.881 -7.77802 419.344 -8.528 420.44C-9.27509 421.52 -9.86791 423.284 -10.3064 425.732ZM-8.56719 433.5C-7.60427 433.673 -6.74925 433.219 -6.00216 432.139C-5.25218 431.043 -4.65792 429.271 -4.21939 426.823C-3.84722 424.745 -3.73066 423.103 -3.86972 421.898L-10.3849 431.878C-10.0397 432.804 -9.43382 433.345 -8.56719 433.5Z" fill="url(#paint39_linear_122_130)" fill-opacity="0.6"/>
<path d="M-12.2404 461.142L-9.20715 461.686L-9.43651 462.966L-17.2981 461.558L-17.0687 460.278L-13.5609 460.906L-11.1288 447.327L-14.8913 449.072L-15.2743 447.881L-10.6109 445.624L-9.49666 445.824L-12.2404 461.142Z" fill="url(#paint40_linear_122_130)" fill-opacity="0.6"/>
<path d="M-15.6373 472.974C-14.1654 473.238 -13.1824 474.17 -12.6884 475.772C-12.1777 477.359 -12.1705 479.538 -12.6667 482.309C-13.1629 485.08 -13.9275 487.129 -14.9603 488.457C-15.9795 489.787 -17.225 490.32 -18.6969 490.057C-20.155 489.796 -21.138 488.863 -21.6458 487.259C-22.1536 485.655 -22.1594 483.468 -21.6631 480.698C-21.1698 477.943 -20.4067 475.902 -19.3738 474.574C-18.3409 473.246 -17.0954 472.713 -15.6373 472.974ZM-20.1981 480.96C-20.5501 482.925 -20.6743 484.491 -20.5707 485.656L-14.0728 475.773C-14.4187 474.93 -15.0181 474.432 -15.871 474.279C-16.8201 474.109 -17.6697 474.572 -18.4197 475.668C-19.1668 476.748 -19.7596 478.512 -20.1981 480.96ZM-18.4589 488.728C-17.4959 488.9 -16.6409 488.447 -15.8938 487.367C-15.1439 486.271 -14.5496 484.499 -14.1111 482.05C-13.7389 479.972 -13.6223 478.331 -13.7614 477.125L-20.2766 487.105C-19.9314 488.032 -19.3255 488.573 -18.4589 488.728Z" fill="url(#paint41_linear_122_130)" fill-opacity="0.6"/>
<path d="M67.1957 231.313C68.6676 231.577 69.6506 232.509 70.1446 234.111C70.6553 235.698 70.6625 237.878 70.1663 240.648C69.67 243.419 68.9055 245.468 67.8726 246.796C66.8535 248.126 65.608 248.66 64.1361 248.396C62.6779 248.135 61.695 247.202 61.1872 245.598C60.6794 243.995 60.6736 241.807 61.1698 239.037C61.6632 236.282 62.4263 234.241 63.4592 232.913C64.492 231.585 65.7375 231.052 67.1957 231.313ZM62.6348 239.299C62.2829 241.264 62.1586 242.83 62.2622 243.995L68.7601 234.112C68.4142 233.269 67.8149 232.771 66.962 232.618C66.0128 232.448 65.1633 232.911 64.4133 234.007C63.6662 235.087 63.0734 236.851 62.6348 239.299ZM64.3741 247.067C65.337 247.239 66.192 246.786 66.9391 245.706C67.6891 244.61 68.2833 242.838 68.7219 240.389C69.0941 238.312 69.2106 236.67 69.0715 235.465L62.5563 245.445C62.9015 246.371 63.5075 246.912 64.3741 247.067Z" fill="url(#paint42_linear_122_130)" fill-opacity="0.6"/>
<path d="M60.7009 274.709L63.7341 275.252L63.5048 276.533L55.6432 275.125L55.8725 273.844L59.3803 274.473L61.8124 260.894L58.0499 262.639L57.6669 261.448L62.3304 259.191L63.4446 259.39L60.7009 274.709Z" fill="url(#paint43_linear_122_130)" fill-opacity="0.6"/>
<path d="M55.7551 302.323L58.7883 302.866L58.5589 304.147L50.6973 302.739L50.9267 301.458L54.4345 302.086L56.8666 288.507L53.1041 290.252L52.7211 289.062L57.3845 286.805L58.4988 287.004L55.7551 302.323Z" fill="url(#paint44_linear_122_130)" fill-opacity="0.6"/>
<path d="M52.3582 314.155C53.8301 314.418 54.813 315.351 55.3071 316.952C55.8178 318.54 55.825 320.719 55.3287 323.49C54.8325 326.26 54.068 328.309 53.0351 329.637C52.016 330.968 50.7704 331.501 49.2986 331.237C47.8404 330.976 46.8574 330.044 46.3496 328.44C45.8418 326.836 45.8361 324.649 46.3323 321.878C46.8256 319.124 47.5888 317.083 48.6216 315.755C49.6545 314.427 50.9 313.894 52.3582 314.155ZM47.7973 322.141C47.4453 324.106 47.3211 325.671 47.4247 326.837L53.9226 316.954C53.5767 316.11 52.9774 315.612 52.1245 315.459C51.1753 315.289 50.3257 315.752 49.5758 316.848C48.8287 317.928 48.2358 319.692 47.7973 322.141ZM49.5366 329.908C50.4995 330.081 51.3545 329.627 52.1016 328.547C52.8516 327.451 53.4458 325.679 53.8844 323.231C54.2565 321.153 54.3731 319.511 54.234 318.306L47.7188 328.286C48.064 329.212 48.6699 329.753 49.5366 329.908Z" fill="url(#paint45_linear_122_130)" fill-opacity="0.6"/>
<path d="M47.4123 341.769C48.8842 342.032 49.8672 342.965 50.3612 344.566C50.8719 346.154 50.8791 348.333 50.3829 351.103C49.8867 353.874 49.1221 355.923 48.0892 357.251C47.0701 358.581 45.8246 359.115 44.3527 358.851C42.8946 358.59 41.9116 357.657 41.4038 356.054C40.896 354.45 40.8902 352.263 41.3865 349.492C41.8798 346.738 42.6429 344.696 43.6758 343.369C44.7087 342.041 45.9542 341.507 47.4123 341.769ZM42.8515 349.754C42.4995 351.72 42.3753 353.285 42.4789 354.451L48.9767 344.567C48.6309 343.724 48.0315 343.226 47.1786 343.073C46.2295 342.903 45.3799 343.366 44.6299 344.462C43.8828 345.542 43.29 347.306 42.8515 349.754ZM44.5907 357.522C45.5537 357.695 46.4087 357.241 47.1558 356.161C47.9057 355.065 48.5 353.293 48.9385 350.845C49.3107 348.767 49.4272 347.125 49.2882 345.92L42.773 355.9C43.1182 356.826 43.7241 357.367 44.5907 357.522Z" fill="url(#paint46_linear_122_130)" fill-opacity="0.6"/>
<g opacity="0.6">
<path d="M950.135 0.975041C951.539 1.22655 952.476 2.12029 952.946 3.65626C953.431 5.17912 953.436 7.26996 952.96 9.92876C952.484 12.5876 951.752 14.5545 950.765 15.8296C949.792 17.107 948.603 17.6199 947.198 17.3684C945.807 17.1193 944.87 16.2255 944.387 14.6872C943.904 13.1489 943.901 11.0503 944.377 8.39151C944.851 5.74817 945.581 3.78896 946.568 2.5139C947.555 1.23884 948.744 0.725884 950.135 0.975041ZM945.775 8.64185C945.437 10.5277 945.317 12.0299 945.415 13.1482L951.625 3.65895C951.295 2.85015 950.724 2.37289 949.91 2.22715C949.005 2.06497 948.194 2.50999 947.477 3.56222C946.763 4.599 946.196 6.29221 945.775 8.64185ZM947.427 16.0931C948.346 16.2577 949.162 15.8215 949.876 14.7848C950.592 13.7325 951.161 12.0316 951.582 9.68196C951.939 7.68785 952.052 6.11265 951.921 4.95636L945.694 14.5383C946.022 15.4268 946.6 15.945 947.427 16.0931Z" fill="url(#paint47_linear_122_130)"/>
<path d="M943.895 42.6189L946.789 43.1372L946.569 44.3661L939.068 43.0228L939.289 41.7938L942.635 42.3932L944.969 29.362L941.377 31.04L941.013 29.8978L945.465 27.7278L946.528 27.9182L943.895 42.6189Z" fill="url(#paint48_linear_122_130)"/>
<path d="M940.642 53.9745C942.046 54.226 942.983 55.1197 943.453 56.6557C943.939 58.1785 943.944 60.2694 943.467 62.9282C942.991 65.587 942.26 67.5539 941.273 68.829C940.299 70.1064 939.11 70.6193 937.706 70.3678C936.315 70.1187 935.378 69.2249 934.895 67.6866C934.412 66.1483 934.408 64.0497 934.885 61.3909C935.358 58.7476 936.088 56.7884 937.075 55.5133C938.062 54.2383 939.251 53.7253 940.642 53.9745ZM936.282 61.6413C935.945 63.5272 935.824 65.0293 935.922 66.1476L942.132 56.6584C941.803 55.8496 941.231 55.3723 940.418 55.2266C939.512 55.0644 938.701 55.5094 937.984 56.5616C937.271 57.5984 936.703 59.2916 936.282 61.6413ZM937.934 69.0925C938.853 69.2571 939.669 68.821 940.383 67.7842C941.1 66.7319 941.669 65.031 942.089 62.6814C942.447 60.6873 942.559 59.1121 942.428 57.9558L936.201 67.5377C936.53 68.4262 937.108 68.9445 937.934 69.0925Z" fill="url(#paint49_linear_122_130)"/>
<path d="M934.402 95.6183L937.296 96.1366L937.076 97.3655L929.576 96.0222L929.796 94.7933L933.142 95.3926L935.476 82.3614L931.885 84.0394L931.52 82.8972L935.972 80.7272L937.035 80.9176L934.402 95.6183Z" fill="url(#paint50_linear_122_130)"/>
<path d="M929.656 122.118L932.55 122.636L932.33 123.865L924.83 122.522L925.05 121.293L928.396 121.892L930.73 108.861L927.138 110.539L926.774 109.397L931.226 107.227L932.289 107.417L929.656 122.118Z" fill="url(#paint51_linear_122_130)"/>
<path d="M926.403 133.474C927.807 133.725 928.744 134.619 929.214 136.155C929.7 137.678 929.705 139.768 929.229 142.427C928.752 145.086 928.021 147.053 927.034 148.328C926.06 149.606 924.871 150.118 923.467 149.867C922.076 149.618 921.139 148.724 920.656 147.186C920.173 145.647 920.17 143.549 920.646 140.89C921.119 138.247 921.849 136.288 922.836 135.012C923.823 133.737 925.012 133.224 926.403 133.474ZM922.043 141.14C921.706 143.026 921.586 144.528 921.683 145.647L927.893 136.157C927.564 135.349 926.993 134.871 926.179 134.726C925.273 134.563 924.462 135.009 923.746 136.061C923.032 137.098 922.464 138.791 922.043 141.14ZM923.695 148.592C924.614 148.756 925.43 148.32 926.144 147.283C926.861 146.231 927.43 144.53 927.851 142.18C928.208 140.186 928.321 138.611 928.189 137.455L921.963 147.037C922.291 147.925 922.869 148.444 923.695 148.592Z" fill="url(#paint52_linear_122_130)"/>
<path d="M920.163 175.117L923.057 175.636L922.837 176.865L915.337 175.521L915.557 174.292L918.904 174.892L921.238 161.861L917.646 163.539L917.281 162.396L921.733 160.226L922.796 160.417L920.163 175.117Z" fill="url(#paint53_linear_122_130)"/>
<path d="M916.911 186.473C918.315 186.724 919.252 187.618 919.722 189.154C920.207 190.677 920.212 192.768 919.736 195.427C919.26 198.086 918.528 200.052 917.541 201.328C916.568 202.605 915.379 203.118 913.974 202.866C912.583 202.617 911.646 201.723 911.163 200.185C910.68 198.647 910.677 196.548 911.153 193.889C911.627 191.246 912.357 189.287 913.344 188.012C914.33 186.737 915.519 186.224 916.911 186.473ZM912.551 194.14C912.213 196.026 912.093 197.528 912.191 198.646L918.401 189.157C918.071 188.348 917.5 187.871 916.686 187.725C915.781 187.563 914.97 188.008 914.253 189.06C913.539 190.097 912.972 191.79 912.551 194.14ZM914.203 201.591C915.121 201.756 915.938 201.32 916.652 200.283C917.368 199.23 917.937 197.53 918.358 195.18C918.715 193.186 918.828 191.611 918.696 190.454L912.47 200.036C912.798 200.925 913.376 201.443 914.203 201.591Z" fill="url(#paint54_linear_122_130)"/>
<path d="M912.164 212.973C913.569 213.224 914.506 214.118 914.975 215.654C915.461 217.177 915.466 219.268 914.99 221.926C914.513 224.585 913.782 226.552 912.795 227.827C911.821 229.105 910.632 229.618 909.228 229.366C907.837 229.117 906.9 228.223 906.417 226.685C905.934 225.147 905.931 223.048 906.407 220.389C906.88 217.746 907.61 215.787 908.597 214.512C909.584 213.237 910.773 212.724 912.164 212.973ZM907.805 220.64C907.467 222.525 907.347 224.028 907.444 225.146L913.654 215.657C913.325 214.848 912.754 214.371 911.94 214.225C911.035 214.063 910.223 214.508 909.507 215.56C908.793 216.597 908.225 218.29 907.805 220.64ZM909.457 228.091C910.375 228.255 911.191 227.819 911.905 226.782C912.622 225.73 913.191 224.029 913.612 221.68C913.969 219.686 914.082 218.11 913.95 216.954L907.724 226.536C908.052 227.424 908.63 227.943 909.457 228.091Z" fill="url(#paint55_linear_122_130)"/>
<path d="M905.925 254.617L908.818 255.135L908.598 256.364L901.098 255.02L901.318 253.792L904.665 254.391L906.999 241.36L903.407 243.038L903.043 241.895L907.495 239.725L908.558 239.916L905.925 254.617Z" fill="url(#paint56_linear_122_130)"/>
<path d="M902.672 265.972C904.076 266.224 905.013 267.117 905.483 268.653C905.969 270.176 905.973 272.267 905.497 274.926C905.021 277.585 904.289 279.552 903.302 280.827C902.329 282.104 901.14 282.617 899.736 282.365C898.344 282.116 897.407 281.223 896.924 279.684C896.441 278.146 896.438 276.047 896.914 273.389C897.388 270.745 898.118 268.786 899.105 267.511C900.092 266.236 901.281 265.723 902.672 265.972ZM898.312 273.639C897.974 275.525 897.854 277.027 897.952 278.145L904.162 268.656C903.833 267.847 903.261 267.37 902.447 267.224C901.542 267.062 900.731 267.507 900.014 268.559C899.3 269.596 898.733 271.289 898.312 273.639ZM899.964 281.09C900.883 281.255 901.699 280.819 902.413 279.782C903.13 278.73 903.698 277.029 904.119 274.679C904.476 272.685 904.589 271.11 904.458 269.953L898.231 279.535C898.56 280.424 899.137 280.942 899.964 281.09Z" fill="url(#paint57_linear_122_130)"/>
<path d="M896.432 307.616L899.326 308.134L899.106 309.363L891.606 308.02L891.826 306.791L895.172 307.39L897.506 294.359L893.914 296.037L893.55 294.895L898.002 292.725L899.065 292.915L896.432 307.616Z" fill="url(#paint58_linear_122_130)"/>
<path d="M891.686 334.116L894.579 334.634L894.359 335.863L886.859 334.52L887.079 333.291L890.426 333.89L892.76 320.859L889.168 322.537L888.804 321.395L893.256 319.225L894.319 319.415L891.686 334.116Z" fill="url(#paint59_linear_122_130)"/>
<path d="M977.201 60.5224C978.605 60.7739 979.542 61.6676 980.012 63.2036C980.497 64.7264 980.502 66.8173 980.026 69.4761C979.55 72.1349 978.818 74.1018 977.831 75.3769C976.858 76.6543 975.669 77.1672 974.264 76.9157C972.873 76.6666 971.936 75.7728 971.453 74.2345C970.97 72.6962 970.967 70.5976 971.443 67.9388C971.917 65.2955 972.647 63.3363 973.634 62.0612C974.621 60.7862 975.809 60.2732 977.201 60.5224ZM972.841 68.1892C972.503 70.0751 972.383 71.5772 972.481 72.6955L978.691 63.2063C978.361 62.3975 977.79 61.9202 976.976 61.7745C976.071 61.6123 975.26 62.0573 974.543 63.1095C973.829 64.1463 973.262 65.8395 972.841 68.1892ZM974.493 75.6404C975.411 75.805 976.228 75.3689 976.942 74.3321C977.658 73.2798 978.227 71.5789 978.648 69.2293C979.005 67.2352 979.118 65.66 978.986 64.5037L972.76 74.0857C973.088 74.9741 973.666 75.4924 974.493 75.6404Z" fill="url(#paint60_linear_122_130)"/>
<path d="M970.961 102.166L973.855 102.684L973.635 103.913L966.134 102.57L966.355 101.341L969.701 101.941L972.035 88.9093L968.443 90.5873L968.079 89.4452L972.531 87.2751L973.594 87.4655L970.961 102.166Z" fill="url(#paint61_linear_122_130)"/>
<path d="M967.708 113.522C969.112 113.773 970.049 114.667 970.519 116.203C971.005 117.726 971.01 119.817 970.533 122.475C970.057 125.134 969.326 127.101 968.339 128.376C967.365 129.654 966.176 130.167 964.772 129.915C963.381 129.666 962.444 128.772 961.961 127.234C961.478 125.696 961.474 123.597 961.951 120.938C962.424 118.295 963.154 116.336 964.141 115.061C965.128 113.786 966.317 113.273 967.708 113.522ZM963.348 121.189C963.01 123.074 962.89 124.577 962.988 125.695L969.198 116.206C968.869 115.397 968.297 114.92 967.484 114.774C966.578 114.612 965.767 115.057 965.05 116.109C964.336 117.146 963.769 118.839 963.348 121.189ZM965 128.64C965.919 128.804 966.735 128.368 967.449 127.332C968.166 126.279 968.735 124.578 969.155 122.229C969.513 120.235 969.625 118.659 969.494 117.503L963.267 127.085C963.596 127.974 964.173 128.492 965 128.64Z" fill="url(#paint62_linear_122_130)"/>
<path d="M962.962 140.021C964.366 140.273 965.303 141.167 965.773 142.703C966.259 144.226 966.263 146.316 965.787 148.975C965.311 151.634 964.579 153.601 963.592 154.876C962.619 156.153 961.43 156.666 960.026 156.415C958.634 156.166 957.697 155.272 957.214 153.734C956.731 152.195 956.728 150.097 957.204 147.438C957.678 144.795 958.408 142.835 959.395 141.56C960.382 140.285 961.571 139.772 962.962 140.021ZM958.602 147.688C958.264 149.574 958.144 151.076 958.242 152.195L964.452 142.705C964.123 141.897 963.551 141.419 962.737 141.274C961.832 141.111 961.021 141.556 960.304 142.609C959.59 143.645 959.023 145.339 958.602 147.688ZM960.254 155.14C961.173 155.304 961.989 154.868 962.703 153.831C963.42 152.779 963.988 151.078 964.409 148.728C964.766 146.734 964.879 145.159 964.748 144.003L958.521 153.585C958.85 154.473 959.427 154.991 960.254 155.14Z" fill="url(#paint63_linear_122_130)"/>
<path d="M956.722 181.665L959.616 182.184L959.396 183.413L951.896 182.069L952.116 180.84L955.462 181.44L957.796 168.408L954.204 170.086L953.84 168.944L958.292 166.774L959.355 166.965L956.722 181.665Z" fill="url(#paint64_linear_122_130)"/>
<path d="M953.469 193.021C954.873 193.272 955.81 194.166 956.28 195.702C956.766 197.225 956.771 199.316 956.295 201.975C955.818 204.633 955.087 206.6 954.1 207.875C953.126 209.153 951.937 209.666 950.533 209.414C949.142 209.165 948.205 208.271 947.722 206.733C947.239 205.195 947.235 203.096 947.712 200.437C948.185 197.794 948.915 195.835 949.902 194.56C950.889 193.285 952.078 192.772 953.469 193.021ZM949.109 200.688C948.772 202.574 948.652 204.076 948.749 205.194L954.959 195.705C954.63 194.896 954.059 194.419 953.245 194.273C952.339 194.111 951.528 194.556 950.812 195.608C950.098 196.645 949.53 198.338 949.109 200.688ZM950.761 208.139C951.68 208.304 952.496 207.867 953.21 206.831C953.927 205.778 954.496 204.077 954.917 201.728C955.274 199.734 955.387 198.159 955.255 197.002L949.028 206.584C949.357 207.473 949.935 207.991 950.761 208.139Z" fill="url(#paint65_linear_122_130)"/>
<path d="M947.229 234.665L950.123 235.183L949.903 236.412L942.403 235.069L942.623 233.84L945.97 234.439L948.304 221.408L944.712 223.086L944.347 221.944L948.799 219.774L949.862 219.964L947.229 234.665Z" fill="url(#paint66_linear_122_130)"/>
<path d="M943.977 246.02C945.381 246.272 946.318 247.166 946.788 248.702C947.273 250.224 947.278 252.315 946.802 254.974C946.326 257.633 945.594 259.6 944.607 260.875C943.634 262.152 942.445 262.665 941.04 262.414C939.649 262.165 938.712 261.271 938.229 259.732C937.746 258.194 937.743 256.096 938.219 253.437C938.693 250.793 939.423 248.834 940.41 247.559C941.396 246.284 942.585 245.771 943.977 246.02ZM939.617 253.687C939.279 255.573 939.159 257.075 939.257 258.193L945.467 248.704C945.137 247.895 944.566 247.418 943.752 247.272C942.847 247.11 942.036 247.555 941.319 248.608C940.605 249.644 940.038 251.337 939.617 253.687ZM941.269 261.138C942.187 261.303 943.004 260.867 943.718 259.83C944.434 258.778 945.003 257.077 945.424 254.727C945.781 252.733 945.894 251.158 945.762 250.002L939.536 259.584C939.864 260.472 940.442 260.99 941.269 261.138Z" fill="url(#paint67_linear_122_130)"/>
<path d="M939.23 272.52C940.634 272.772 941.571 273.665 942.041 275.201C942.527 276.724 942.532 278.815 942.056 281.474C941.579 284.133 940.848 286.099 939.861 287.375C938.887 288.652 937.698 289.165 936.294 288.913C934.903 288.664 933.966 287.77 933.483 286.232C933 284.694 932.997 282.595 933.473 279.936C933.946 277.293 934.676 275.334 935.663 274.059C936.65 272.784 937.839 272.271 939.23 272.52ZM934.87 280.187C934.533 282.073 934.413 283.575 934.51 284.693L940.72 275.204C940.391 274.395 939.82 273.918 939.006 273.772C938.1 273.61 937.289 274.055 936.573 275.107C935.859 276.144 935.291 277.837 934.87 280.187ZM936.522 287.638C937.441 287.803 938.257 287.367 938.971 286.33C939.688 285.278 940.257 283.577 940.678 281.227C941.035 279.233 941.148 277.658 941.016 276.501L934.79 286.083C935.118 286.972 935.696 287.49 936.522 287.638Z" fill="url(#paint68_linear_122_130)"/>
<path d="M932.991 314.164L935.884 314.682L935.664 315.911L928.164 314.568L928.384 313.339L931.731 313.938L934.065 300.907L930.473 302.585L930.108 301.443L934.561 299.273L935.624 299.463L932.991 314.164Z" fill="url(#paint69_linear_122_130)"/>
<path d="M929.738 325.519C931.142 325.771 932.079 326.665 932.549 328.201C933.034 329.724 933.039 331.814 932.563 334.473C932.087 337.132 931.355 339.099 930.368 340.374C929.395 341.651 928.206 342.164 926.801 341.913C925.41 341.664 924.473 340.77 923.99 339.232C923.507 337.693 923.504 335.595 923.98 332.936C924.454 330.293 925.184 328.333 926.171 327.058C927.158 325.783 928.347 325.27 929.738 325.519ZM925.378 333.186C925.04 335.072 924.92 336.574 925.018 337.693L931.228 328.203C930.898 327.395 930.327 326.917 929.513 326.772C928.608 326.609 927.797 327.054 927.08 328.107C926.366 329.143 925.799 330.837 925.378 333.186ZM927.03 340.638C927.949 340.802 928.765 340.366 929.479 339.329C930.195 338.277 930.764 336.576 931.185 334.226C931.542 332.232 931.655 330.657 931.524 329.501L925.297 339.083C925.625 339.971 926.203 340.489 927.03 340.638Z" fill="url(#paint70_linear_122_130)"/>
<path d="M923.498 367.163L926.392 367.682L926.172 368.91L918.671 367.567L918.892 366.338L922.238 366.938L924.572 353.906L920.98 355.584L920.616 354.442L925.068 352.272L926.131 352.463L923.498 367.163Z" fill="url(#paint71_linear_122_130)"/>
<path d="M918.752 393.663L921.645 394.181L921.425 395.41L913.925 394.067L914.145 392.838L917.492 393.437L919.826 380.406L916.234 382.084L915.87 380.942L920.322 378.772L921.385 378.962L918.752 393.663Z" fill="url(#paint72_linear_122_130)"/>
<path d="M917.616 77.2002C919.021 77.4517 919.958 78.3455 920.428 79.8814C920.913 81.4043 920.918 83.4951 920.442 86.1539C919.966 88.8127 919.234 90.7797 918.247 92.0547C917.274 93.3321 916.085 93.8451 914.68 93.5936C913.289 93.3444 912.352 92.4507 911.869 90.9124C911.386 89.374 911.383 87.2755 911.859 84.6167C912.333 81.9733 913.063 80.0141 914.05 78.7391C915.036 77.464 916.225 76.951 917.616 77.2002ZM913.257 84.867C912.919 86.7529 912.799 88.255 912.897 89.3733L919.107 79.8841C918.777 79.0753 918.206 78.5981 917.392 78.4523C916.487 78.2901 915.676 78.7352 914.959 79.7874C914.245 80.8242 913.678 82.5174 913.257 84.867ZM914.909 92.3183C915.827 92.4828 916.644 92.0467 917.358 91.0099C918.074 89.9577 918.643 88.2568 919.064 85.9071C919.421 83.913 919.534 82.3378 919.402 81.1815L913.176 90.7635C913.504 91.6519 914.082 92.1702 914.909 92.3183Z" fill="url(#paint73_linear_122_130)"/>
<path d="M912.87 103.7C914.274 103.951 915.211 104.845 915.681 106.381C916.167 107.904 916.172 109.995 915.696 112.654C915.219 115.312 914.488 117.279 913.501 118.554C912.527 119.832 911.338 120.345 909.934 120.093C908.543 119.844 907.606 118.95 907.123 117.412C906.64 115.874 906.637 113.775 907.113 111.116C907.586 108.473 908.316 106.514 909.303 105.239C910.29 103.964 911.479 103.451 912.87 103.7ZM908.51 111.367C908.173 113.253 908.053 114.755 908.15 115.873L914.36 106.384C914.031 105.575 913.46 105.098 912.646 104.952C911.74 104.79 910.929 105.235 910.213 106.287C909.499 107.324 908.931 109.017 908.51 111.367ZM910.162 118.818C911.081 118.983 911.897 118.546 912.611 117.51C913.328 116.457 913.897 114.756 914.318 112.407C914.675 110.413 914.788 108.838 914.656 107.681L908.43 117.263C908.758 118.152 909.336 118.67 910.162 118.818Z" fill="url(#paint74_linear_122_130)"/>
<path d="M906.63 145.344L909.524 145.862L909.304 147.091L901.804 145.748L902.024 144.519L905.371 145.118L907.705 132.087L904.113 133.765L903.748 132.623L908.2 130.453L909.263 130.643L906.63 145.344Z" fill="url(#paint75_linear_122_130)"/>
<path d="M903.378 156.699C904.782 156.951 905.719 157.845 906.189 159.381C906.674 160.903 906.679 162.994 906.203 165.653C905.727 168.312 904.995 170.279 904.008 171.554C903.035 172.831 901.846 173.344 900.441 173.093C899.05 172.844 898.113 171.95 897.63 170.411C897.147 168.873 897.144 166.775 897.62 164.116C898.094 161.472 898.824 159.513 899.811 158.238C900.798 156.963 901.987 156.45 903.378 156.699ZM899.018 164.366C898.68 166.252 898.56 167.754 898.658 168.872L904.868 159.383C904.538 158.574 903.967 158.097 903.153 157.951C902.248 157.789 901.437 158.234 900.72 159.287C900.006 160.323 899.439 162.016 899.018 164.366ZM900.67 171.817C901.588 171.982 902.405 171.546 903.119 170.509C903.835 169.457 904.404 167.756 904.825 165.406C905.182 163.412 905.295 161.837 905.164 160.681L898.937 170.263C899.265 171.151 899.843 171.669 900.67 171.817Z" fill="url(#paint76_linear_122_130)"/>
<path d="M897.138 198.343L900.032 198.861L899.812 200.09L892.311 198.747L892.532 197.518L895.878 198.118L898.212 185.086L894.62 186.764L894.256 185.622L898.708 183.452L899.771 183.642L897.138 198.343Z" fill="url(#paint77_linear_122_130)"/>
<path d="M892.392 224.843L895.285 225.361L895.065 226.59L887.565 225.247L887.785 224.018L891.132 224.617L893.466 211.586L889.874 213.264L889.51 212.122L893.962 209.952L895.025 210.142L892.392 224.843Z" fill="url(#paint78_linear_122_130)"/>
<path d="M962.174 45.8928L965.068 46.4111L964.848 47.64L957.348 46.2967L957.568 45.0678L960.914 45.6672L963.248 32.636L959.656 34.3139L959.292 33.1718L963.744 31.0017L964.807 31.1921L962.174 45.8928Z" fill="url(#paint79_linear_122_130)"/>
<path d="M958.921 57.2484C960.326 57.4999 961.263 58.3937 961.732 59.9296C962.218 61.4525 962.223 63.5433 961.747 66.2021C961.271 68.8609 960.539 70.8279 959.552 72.1029C958.578 73.3803 957.389 73.8933 955.985 73.6418C954.594 73.3926 953.657 72.4989 953.174 70.9606C952.691 69.4222 952.688 67.3237 953.164 64.6649C953.637 62.0215 954.368 60.0623 955.354 58.7873C956.341 57.5122 957.53 56.9993 958.921 57.2484ZM954.562 64.9152C954.224 66.8011 954.104 68.3032 954.201 69.4215L960.411 59.9323C960.082 59.1235 959.511 58.6463 958.697 58.5005C957.792 58.3383 956.98 58.7834 956.264 59.8356C955.55 60.8724 954.982 62.5656 954.562 64.9152ZM956.214 72.3665C957.132 72.531 957.949 72.0949 958.662 71.0581C959.379 70.0059 959.948 68.305 960.369 65.9553C960.726 63.9612 960.839 62.386 960.707 61.2297L954.481 70.8117C954.809 71.7001 955.387 72.2184 956.214 72.3665Z" fill="url(#paint80_linear_122_130)"/>
<path d="M952.682 98.8922L955.575 99.4105L955.355 100.639L947.855 99.2961L948.075 98.0672L951.422 98.6666L953.756 85.6354L950.164 87.3133L949.8 86.1712L954.252 84.0011L955.315 84.1915L952.682 98.8922Z" fill="url(#paint81_linear_122_130)"/>
<path d="M947.935 125.392L950.829 125.91L950.609 127.139L943.109 125.796L943.329 124.567L946.675 125.166L949.009 112.135L945.418 113.813L945.053 112.671L949.505 110.501L950.568 110.691L947.935 125.392Z" fill="url(#paint82_linear_122_130)"/>
<path d="M944.682 136.748C946.087 136.999 947.024 137.893 947.494 139.429C947.979 140.952 947.984 143.042 947.508 145.701C947.032 148.36 946.3 150.327 945.313 151.602C944.339 152.879 943.15 153.392 941.746 153.141C940.355 152.892 939.418 151.998 938.935 150.46C938.452 148.921 938.449 146.823 938.925 144.164C939.398 141.521 940.129 139.561 941.115 138.286C942.102 137.011 943.291 136.498 944.682 136.748ZM940.323 144.414C939.985 146.3 939.865 147.802 939.963 148.921L946.172 139.431C945.843 138.623 945.272 138.145 944.458 138C943.553 137.837 942.742 138.282 942.025 139.335C941.311 140.371 940.744 142.065 940.323 144.414ZM941.975 151.866C942.893 152.03 943.71 151.594 944.424 150.557C945.14 149.505 945.709 147.804 946.13 145.454C946.487 143.46 946.6 141.885 946.468 140.729L940.242 150.311C940.57 151.199 941.148 151.718 941.975 151.866Z" fill="url(#paint83_linear_122_130)"/>
<path d="M938.443 178.391L941.336 178.91L941.116 180.139L933.616 178.795L933.836 177.566L937.183 178.166L939.517 165.134L935.925 166.812L935.561 165.67L940.013 163.5L941.076 163.691L938.443 178.391Z" fill="url(#paint84_linear_122_130)"/>
<path d="M933.696 204.891L936.59 205.409L936.37 206.638L928.87 205.295L929.09 204.066L932.437 204.665L934.771 191.634L931.179 193.312L930.814 192.17L935.266 190L936.329 190.19L933.696 204.891Z" fill="url(#paint85_linear_122_130)"/>
<path d="M930.444 216.247C931.848 216.498 932.785 217.392 933.255 218.928C933.74 220.451 933.745 222.542 933.269 225.2C932.793 227.859 932.061 229.826 931.074 231.101C930.101 232.379 928.912 232.892 927.507 232.64C926.116 232.391 925.179 231.497 924.696 229.959C924.213 228.42 924.21 226.322 924.686 223.663C925.16 221.02 925.89 219.061 926.877 217.786C927.863 216.51 929.052 215.997 930.444 216.247ZM926.084 223.913C925.746 225.799 925.626 227.301 925.724 228.42L931.934 218.931C931.604 218.122 931.033 217.644 930.219 217.499C929.314 217.337 928.503 217.782 927.786 218.834C927.072 219.871 926.505 221.564 926.084 223.913ZM927.736 231.365C928.654 231.529 929.471 231.093 930.185 230.056C930.901 229.004 931.47 227.303 931.891 224.954C932.248 222.959 932.361 221.384 932.229 220.228L926.003 229.81C926.331 230.698 926.909 231.217 927.736 231.365Z" fill="url(#paint86_linear_122_130)"/>
<path d="M924.204 257.89L927.098 258.409L926.877 259.638L919.377 258.294L919.597 257.065L922.944 257.665L925.278 244.634L921.686 246.312L921.322 245.169L925.774 242.999L926.837 243.19L924.204 257.89Z" fill="url(#paint87_linear_122_130)"/>
<path d="M920.951 269.246C922.355 269.498 923.292 270.391 923.762 271.927C924.248 273.45 924.253 275.541 923.776 278.2C923.3 280.859 922.569 282.826 921.582 284.101C920.608 285.378 919.419 285.891 918.015 285.639C916.624 285.39 915.687 284.497 915.204 282.958C914.721 281.42 914.717 279.321 915.194 276.663C915.667 274.019 916.397 272.06 917.384 270.785C918.371 269.51 919.56 268.997 920.951 269.246ZM916.591 276.913C916.253 278.799 916.133 280.301 916.231 281.419L922.441 271.93C922.112 271.121 921.54 270.644 920.727 270.498C919.821 270.336 919.01 270.781 918.293 271.833C917.579 272.87 917.012 274.563 916.591 276.913ZM918.243 284.364C919.162 284.529 919.978 284.093 920.692 283.056C921.409 282.004 921.978 280.303 922.398 277.953C922.756 275.959 922.868 274.384 922.737 273.227L916.51 282.809C916.839 283.698 917.416 284.216 918.243 284.364Z" fill="url(#paint88_linear_122_130)"/>
<path d="M1000.23 37.2966C1001.63 37.5481 1002.57 38.4419 1003.04 39.9778C1003.52 41.5007 1003.53 43.5915 1003.05 46.2503C1002.58 48.9091 1001.84 50.8761 1000.86 52.1511C999.883 53.4285 998.694 53.9415 997.29 53.69C995.899 53.4408 994.962 52.5471 994.479 51.0088C993.996 49.4704 993.993 47.3719 994.469 44.7131C994.942 42.0697 995.672 40.1105 996.659 38.8355C997.646 37.5604 998.835 37.0475 1000.23 37.2966ZM995.866 44.9634C995.529 46.8493 995.409 48.3514 995.506 49.4697L1001.72 39.9805C1001.39 39.1717 1000.82 38.6945 1000 38.5487C999.096 38.3865 998.285 38.8316 997.569 39.8838C996.855 40.9206 996.287 42.6138 995.866 44.9634ZM997.518 52.4147C998.437 52.5792 999.253 52.1431 999.967 51.1063C1000.68 50.0541 1001.25 48.3532 1001.67 46.0035C1002.03 44.0094 1002.14 42.4342 1002.01 41.2779L995.786 50.8599C996.114 51.7483 996.692 52.2666 997.518 52.4147Z" fill="url(#paint89_linear_122_130)"/>
<path d="M993.986 78.9404L996.88 79.4587L996.66 80.6877L989.16 79.3443L989.38 78.1154L992.727 78.7148L995.061 65.6836L991.469 67.3616L991.104 66.2194L995.556 64.0493L996.619 64.2397L993.986 78.9404Z" fill="url(#paint90_linear_122_130)"/>
<path d="M989.24 105.44L992.134 105.958L991.914 107.187L984.414 105.844L984.634 104.615L987.98 105.214L990.314 92.1833L986.722 93.8613L986.358 92.7191L990.81 90.549L991.873 90.7394L989.24 105.44Z" fill="url(#paint91_linear_122_130)"/>
<path d="M985.987 116.796C987.392 117.047 988.329 117.941 988.798 119.477C989.284 121 989.289 123.091 988.813 125.749C988.336 128.408 987.605 130.375 986.618 131.65C985.644 132.928 984.455 133.441 983.051 133.189C981.66 132.94 980.723 132.046 980.24 130.508C979.757 128.97 979.754 126.871 980.23 124.212C980.703 121.569 981.433 119.61 982.42 118.335C983.407 117.06 984.596 116.547 985.987 116.796ZM981.628 124.463C981.29 126.348 981.17 127.851 981.267 128.969L987.477 119.48C987.148 118.671 986.577 118.194 985.763 118.048C984.857 117.886 984.046 118.331 983.33 119.383C982.616 120.42 982.048 122.113 981.628 124.463ZM983.28 131.914C984.198 132.078 985.014 131.642 985.728 130.605C986.445 129.553 987.014 127.852 987.435 125.503C987.792 123.509 987.905 121.933 987.773 120.777L981.547 130.359C981.875 131.247 982.453 131.766 983.28 131.914Z" fill="url(#paint92_linear_122_130)"/>
<path d="M981.241 143.295C982.645 143.547 983.582 144.441 984.052 145.977C984.538 147.5 984.543 149.59 984.066 152.249C983.59 154.908 982.859 156.875 981.872 158.15C980.898 159.427 979.709 159.94 978.305 159.689C976.914 159.44 975.977 158.546 975.494 157.008C975.011 155.469 975.007 153.371 975.484 150.712C975.957 148.069 976.687 146.109 977.674 144.834C978.661 143.559 979.85 143.046 981.241 143.295ZM976.881 150.962C976.543 152.848 976.423 154.35 976.521 155.469L982.731 145.979C982.402 145.171 981.83 144.693 981.017 144.548C980.111 144.385 979.3 144.83 978.583 145.883C977.869 146.919 977.302 148.613 976.881 150.962ZM978.533 158.414C979.452 158.578 980.268 158.142 980.982 157.105C981.699 156.053 982.268 154.352 982.688 152.002C983.046 150.008 983.158 148.433 983.027 147.277L976.8 156.859C977.129 157.747 977.706 158.265 978.533 158.414Z" fill="url(#paint93_linear_122_130)"/>
</g>
</g>
<defs>
<filter id="filter0_f_122_130" x="-528.498" y="-820.491" width="2128.51" height="1648.09" filterUnits="userSpaceOnUse" color-interpolation-filters="sRGB">
<feFlood flood-opacity="0" result="BackgroundImageFix"/>
<feBlend mode="normal" in="SourceGraphic" in2="BackgroundImageFix" result="shape"/>
<feGaussianBlur stdDeviation="200.095" result="effect1_foregroundBlur_122_130"/>
</filter>
<linearGradient id="paint0_linear_122_130" x1="33.8211" y1="196.836" x2="-31.0197" y2="558.858" gradientUnits="userSpaceOnUse">
<stop stop-color="#F7DD43"/>
<stop offset="1" stop-color="#F7DD43" stop-opacity="0"/>
</linearGradient>
<linearGradient id="paint1_linear_122_130" x1="33.8211" y1="196.836" x2="-31.0197" y2="558.858" gradientUnits="userSpaceOnUse">
<stop stop-color="#F7DD43"/>
<stop offset="1" stop-color="#F7DD43" stop-opacity="0"/>
</linearGradient>
<linearGradient id="paint2_linear_122_130" x1="33.8211" y1="196.836" x2="-31.0197" y2="558.858" gradientUnits="userSpaceOnUse">
<stop stop-color="#F7DD43"/>
<stop offset="1" stop-color="#F7DD43" stop-opacity="0"/>
</linearGradient>
<linearGradient id="paint3_linear_122_130" x1="33.8211" y1="196.836" x2="-31.0197" y2="558.858" gradientUnits="userSpaceOnUse">
<stop stop-color="#F7DD43"/>
<stop offset="1" stop-color="#F7DD43" stop-opacity="0"/>
</linearGradient>
<linearGradient id="paint4_linear_122_130" x1="33.8211" y1="196.836" x2="-31.0197" y2="558.858" gradientUnits="userSpaceOnUse">
<stop stop-color="#F7DD43"/>
<stop offset="1" stop-color="#F7DD43" stop-opacity="0"/>
</linearGradient>
<linearGradient id="paint5_linear_122_130" x1="33.8211" y1="196.836" x2="-31.0197" y2="558.858" gradientUnits="userSpaceOnUse">
<stop stop-color="#F7DD43"/>
<stop offset="1" stop-color="#F7DD43" stop-opacity="0"/>
</linearGradient>
<linearGradient id="paint6_linear_122_130" x1="33.8211" y1="196.836" x2="-31.0197" y2="558.858" gradientUnits="userSpaceOnUse">
<stop stop-color="#F7DD43"/>
<stop offset="1" stop-color="#F7DD43" stop-opacity="0"/>
</linearGradient>
<linearGradient id="paint7_linear_122_130" x1="33.8211" y1="196.836" x2="-31.0197" y2="558.858" gradientUnits="userSpaceOnUse">
<stop stop-color="#F7DD43"/>
<stop offset="1" stop-color="#F7DD43" stop-opacity="0"/>
</linearGradient>
<linearGradient id="paint8_linear_122_130" x1="33.8211" y1="196.836" x2="-31.0197" y2="558.858" gradientUnits="userSpaceOnUse">
<stop stop-color="#F7DD43"/>
<stop offset="1" stop-color="#F7DD43" stop-opacity="0"/>
</linearGradient>
<linearGradient id="paint9_linear_122_130" x1="33.8211" y1="196.836" x2="-31.0197" y2="558.858" gradientUnits="userSpaceOnUse">
<stop stop-color="#F7DD43"/>
<stop offset="1" stop-color="#F7DD43" stop-opacity="0"/>
</linearGradient>
<linearGradient id="paint10_linear_122_130" x1="33.8211" y1="196.836" x2="-31.0197" y2="558.858" gradientUnits="userSpaceOnUse">
<stop stop-color="#F7DD43"/>
<stop offset="1" stop-color="#F7DD43" stop-opacity="0"/>
</linearGradient>
<linearGradient id="paint11_linear_122_130" x1="33.8211" y1="196.836" x2="-31.0197" y2="558.858" gradientUnits="userSpaceOnUse">
<stop stop-color="#F7DD43"/>
<stop offset="1" stop-color="#F7DD43" stop-opacity="0"/>
</linearGradient>
<linearGradient id="paint12_linear_122_130" x1="33.8211" y1="196.836" x2="-31.0197" y2="558.858" gradientUnits="userSpaceOnUse">
<stop stop-color="#F7DD43"/>
<stop offset="1" stop-color="#F7DD43" stop-opacity="0"/>
</linearGradient>
<linearGradient id="paint13_linear_122_130" x1="33.8211" y1="196.836" x2="-31.0197" y2="558.858" gradientUnits="userSpaceOnUse">
<stop stop-color="#F7DD43"/>
<stop offset="1" stop-color="#F7DD43" stop-opacity="0"/>
</linearGradient>
<linearGradient id="paint14_linear_122_130" x1="33.8211" y1="196.836" x2="-31.0197" y2="558.858" gradientUnits="userSpaceOnUse">
<stop stop-color="#F7DD43"/>
<stop offset="1" stop-color="#F7DD43" stop-opacity="0"/>
</linearGradient>
<linearGradient id="paint15_linear_122_130" x1="33.8211" y1="196.836" x2="-31.0197" y2="558.858" gradientUnits="userSpaceOnUse">
<stop stop-color="#F7DD43"/>
<stop offset="1" stop-color="#F7DD43" stop-opacity="0"/>
</linearGradient>
<linearGradient id="paint16_linear_122_130" x1="33.8211" y1="196.836" x2="-31.0197" y2="558.858" gradientUnits="userSpaceOnUse">
<stop stop-color="#F7DD43"/>
<stop offset="1" stop-color="#F7DD43" stop-opacity="0"/>
</linearGradient>
<linearGradient id="paint17_linear_122_130" x1="33.8211" y1="196.836" x2="-31.0197" y2="558.858" gradientUnits="userSpaceOnUse">
<stop stop-color="#F7DD43"/>
<stop offset="1" stop-color="#F7DD43" stop-opacity="0"/>
</linearGradient>
<linearGradient id="paint18_linear_122_130" x1="33.8211" y1="196.836" x2="-31.0197" y2="558.858" gradientUnits="userSpaceOnUse">
<stop stop-color="#F7DD43"/>
<stop offset="1" stop-color="#F7DD43" stop-opacity="0"/>
</linearGradient>
<linearGradient id="paint19_linear_122_130" x1="33.8211" y1="196.836" x2="-31.0197" y2="558.858" gradientUnits="userSpaceOnUse">
<stop stop-color="#F7DD43"/>
<stop offset="1" stop-color="#F7DD43" stop-opacity="0"/>
</linearGradient>
<linearGradient id="paint20_linear_122_130" x1="33.8211" y1="196.836" x2="-31.0197" y2="558.858" gradientUnits="userSpaceOnUse">
<stop stop-color="#F7DD43"/>
<stop offset="1" stop-color="#F7DD43" stop-opacity="0"/>
</linearGradient>
<linearGradient id="paint21_linear_122_130" x1="33.8211" y1="196.836" x2="-31.0197" y2="558.858" gradientUnits="userSpaceOnUse">
<stop stop-color="#F7DD43"/>
<stop offset="1" stop-color="#F7DD43" stop-opacity="0"/>
</linearGradient>
<linearGradient id="paint22_linear_122_130" x1="33.8211" y1="196.836" x2="-31.0197" y2="558.858" gradientUnits="userSpaceOnUse">
<stop stop-color="#F7DD43"/>
<stop offset="1" stop-color="#F7DD43" stop-opacity="0"/>
</linearGradient>
<linearGradient id="paint23_linear_122_130" x1="33.8211" y1="196.836" x2="-31.0197" y2="558.858" gradientUnits="userSpaceOnUse">
<stop stop-color="#F7DD43"/>
<stop offset="1" stop-color="#F7DD43" stop-opacity="0"/>
</linearGradient>
<linearGradient id="paint24_linear_122_130" x1="33.8211" y1="196.836" x2="-31.0197" y2="558.858" gradientUnits="userSpaceOnUse">
<stop stop-color="#F7DD43"/>
<stop offset="1" stop-color="#F7DD43" stop-opacity="0"/>
</linearGradient>
<linearGradient id="paint25_linear_122_130" x1="33.8211" y1="196.836" x2="-31.0197" y2="558.858" gradientUnits="userSpaceOnUse">
<stop stop-color="#F7DD43"/>
<stop offset="1" stop-color="#F7DD43" stop-opacity="0"/>
</linearGradient>
<linearGradient id="paint26_linear_122_130" x1="33.8211" y1="196.836" x2="-31.0197" y2="558.858" gradientUnits="userSpaceOnUse">
<stop stop-color="#F7DD43"/>
<stop offset="1" stop-color="#F7DD43" stop-opacity="0"/>
</linearGradient>
<linearGradient id="paint27_linear_122_130" x1="33.8211" y1="196.836" x2="-31.0197" y2="558.858" gradientUnits="userSpaceOnUse">
<stop stop-color="#F7DD43"/>
<stop offset="1" stop-color="#F7DD43" stop-opacity="0"/>
</linearGradient>
<linearGradient id="paint28_linear_122_130" x1="33.8211" y1="196.836" x2="-31.0197" y2="558.858" gradientUnits="userSpaceOnUse">
<stop stop-color="#F7DD43"/>
<stop offset="1" stop-color="#F7DD43" stop-opacity="0"/>
</linearGradient>
<linearGradient id="paint29_linear_122_130" x1="33.8211" y1="196.836" x2="-31.0197" y2="558.858" gradientUnits="userSpaceOnUse">
<stop stop-color="#F7DD43"/>
<stop offset="1" stop-color="#F7DD43" stop-opacity="0"/>
</linearGradient>
<linearGradient id="paint30_linear_122_130" x1="33.8211" y1="196.836" x2="-31.0197" y2="558.858" gradientUnits="userSpaceOnUse">
<stop stop-color="#F7DD43"/>
<stop offset="1" stop-color="#F7DD43" stop-opacity="0"/>
</linearGradient>
<linearGradient id="paint31_linear_122_130" x1="33.8211" y1="196.836" x2="-31.0197" y2="558.858" gradientUnits="userSpaceOnUse">
<stop stop-color="#F7DD43"/>
<stop offset="1" stop-color="#F7DD43" stop-opacity="0"/>
</linearGradient>
<linearGradient id="paint32_linear_122_130" x1="33.8211" y1="196.836" x2="-31.0197" y2="558.858" gradientUnits="userSpaceOnUse">
<stop stop-color="#F7DD43"/>
<stop offset="1" stop-color="#F7DD43" stop-opacity="0"/>
</linearGradient>
<linearGradient id="paint33_linear_122_130" x1="33.8211" y1="196.836" x2="-31.0197" y2="558.858" gradientUnits="userSpaceOnUse">
<stop stop-color="#F7DD43"/>
<stop offset="1" stop-color="#F7DD43" stop-opacity="0"/>
</linearGradient>
<linearGradient id="paint34_linear_122_130" x1="33.8211" y1="196.836" x2="-31.0197" y2="558.858" gradientUnits="userSpaceOnUse">
<stop stop-color="#F7DD43"/>
<stop offset="1" stop-color="#F7DD43" stop-opacity="0"/>
</linearGradient>
<linearGradient id="paint35_linear_122_130" x1="33.8211" y1="196.836" x2="-31.0197" y2="558.858" gradientUnits="userSpaceOnUse">
<stop stop-color="#F7DD43"/>
<stop offset="1" stop-color="#F7DD43" stop-opacity="0"/>
</linearGradient>
<linearGradient id="paint36_linear_122_130" x1="33.8211" y1="196.836" x2="-31.0197" y2="558.858" gradientUnits="userSpaceOnUse">
<stop stop-color="#F7DD43"/>
<stop offset="1" stop-color="#F7DD43" stop-opacity="0"/>
</linearGradient>
<linearGradient id="paint37_linear_122_130" x1="33.8211" y1="196.836" x2="-31.0197" y2="558.858" gradientUnits="userSpaceOnUse">
<stop stop-color="#F7DD43"/>
<stop offset="1" stop-color="#F7DD43" stop-opacity="0"/>
</linearGradient>
<linearGradient id="paint38_linear_122_130" x1="33.8211" y1="196.836" x2="-31.0197" y2="558.858" gradientUnits="userSpaceOnUse">
<stop stop-color="#F7DD43"/>
<stop offset="1" stop-color="#F7DD43" stop-opacity="0"/>
</linearGradient>
<linearGradient id="paint39_linear_122_130" x1="33.8211" y1="196.836" x2="-31.0197" y2="558.858" gradientUnits="userSpaceOnUse">
<stop stop-color="#F7DD43"/>
<stop offset="1" stop-color="#F7DD43" stop-opacity="0"/>
</linearGradient>
<linearGradient id="paint40_linear_122_130" x1="33.8211" y1="196.836" x2="-31.0197" y2="558.858" gradientUnits="userSpaceOnUse">
<stop stop-color="#F7DD43"/>
<stop offset="1" stop-color="#F7DD43" stop-opacity="0"/>
</linearGradient>
<linearGradient id="paint41_linear_122_130" x1="33.8211" y1="196.836" x2="-31.0197" y2="558.858" gradientUnits="userSpaceOnUse">
<stop stop-color="#F7DD43"/>
<stop offset="1" stop-color="#F7DD43" stop-opacity="0"/>
</linearGradient>
<linearGradient id="paint42_linear_122_130" x1="33.8211" y1="196.836" x2="-31.0197" y2="558.858" gradientUnits="userSpaceOnUse">
<stop stop-color="#F7DD43"/>
<stop offset="1" stop-color="#F7DD43" stop-opacity="0"/>
</linearGradient>
<linearGradient id="paint43_linear_122_130" x1="33.8211" y1="196.836" x2="-31.0197" y2="558.858" gradientUnits="userSpaceOnUse">
<stop stop-color="#F7DD43"/>
<stop offset="1" stop-color="#F7DD43" stop-opacity="0"/>
</linearGradient>
<linearGradient id="paint44_linear_122_130" x1="33.8211" y1="196.836" x2="-31.0197" y2="558.858" gradientUnits="userSpaceOnUse">
<stop stop-color="#F7DD43"/>
<stop offset="1" stop-color="#F7DD43" stop-opacity="0"/>
</linearGradient>
<linearGradient id="paint45_linear_122_130" x1="33.8211" y1="196.836" x2="-31.0197" y2="558.858" gradientUnits="userSpaceOnUse">
<stop stop-color="#F7DD43"/>
<stop offset="1" stop-color="#F7DD43" stop-opacity="0"/>
</linearGradient>
<linearGradient id="paint46_linear_122_130" x1="33.8211" y1="196.836" x2="-31.0197" y2="558.858" gradientUnits="userSpaceOnUse">
<stop stop-color="#F7DD43"/>
<stop offset="1" stop-color="#F7DD43" stop-opacity="0"/>
</linearGradient>
<linearGradient id="paint47_linear_122_130" x1="968.414" y1="4.24899" x2="906.189" y2="351.665" gradientUnits="userSpaceOnUse">
<stop stop-color="#F7DD43"/>
<stop offset="1" stop-color="#F7DD43" stop-opacity="0"/>
</linearGradient>
<linearGradient id="paint48_linear_122_130" x1="968.414" y1="4.24899" x2="906.189" y2="351.665" gradientUnits="userSpaceOnUse">
<stop stop-color="#F7DD43"/>
<stop offset="1" stop-color="#F7DD43" stop-opacity="0"/>
</linearGradient>
<linearGradient id="paint49_linear_122_130" x1="968.414" y1="4.24899" x2="906.189" y2="351.665" gradientUnits="userSpaceOnUse">
<stop stop-color="#F7DD43"/>
<stop offset="1" stop-color="#F7DD43" stop-opacity="0"/>
</linearGradient>
<linearGradient id="paint50_linear_122_130" x1="968.414" y1="4.24899" x2="906.189" y2="351.665" gradientUnits="userSpaceOnUse">
<stop stop-color="#F7DD43"/>
<stop offset="1" stop-color="#F7DD43" stop-opacity="0"/>
</linearGradient>
<linearGradient id="paint51_linear_122_130" x1="968.414" y1="4.24899" x2="906.189" y2="351.665" gradientUnits="userSpaceOnUse">
<stop stop-color="#F7DD43"/>
<stop offset="1" stop-color="#F7DD43" stop-opacity="0"/>
</linearGradient>
<linearGradient id="paint52_linear_122_130" x1="968.414" y1="4.24899" x2="906.189" y2="351.665" gradientUnits="userSpaceOnUse">
<stop stop-color="#F7DD43"/>
<stop offset="1" stop-color="#F7DD43" stop-opacity="0"/>
</linearGradient>
<linearGradient id="paint53_linear_122_130" x1="968.414" y1="4.24899" x2="906.189" y2="351.665" gradientUnits="userSpaceOnUse">
<stop stop-color="#F7DD43"/>
<stop offset="1" stop-color="#F7DD43" stop-opacity="0"/>
</linearGradient>
<linearGradient id="paint54_linear_122_130" x1="968.414" y1="4.24899" x2="906.189" y2="351.665" gradientUnits="userSpaceOnUse">
<stop stop-color="#F7DD43"/>
<stop offset="1" stop-color="#F7DD43" stop-opacity="0"/>
</linearGradient>
<linearGradient id="paint55_linear_122_130" x1="968.414" y1="4.24899" x2="906.189" y2="351.665" gradientUnits="userSpaceOnUse">
<stop stop-color="#F7DD43"/>
<stop offset="1" stop-color="#F7DD43" stop-opacity="0"/>
</linearGradient>
<linearGradient id="paint56_linear_122_130" x1="968.414" y1="4.24899" x2="906.189" y2="351.665" gradientUnits="userSpaceOnUse">
<stop stop-color="#F7DD43"/>
<stop offset="1" stop-color="#F7DD43" stop-opacity="0"/>
</linearGradient>
<linearGradient id="paint57_linear_122_130" x1="968.414" y1="4.24899" x2="906.189" y2="351.665" gradientUnits="userSpaceOnUse">
<stop stop-color="#F7DD43"/>
<stop offset="1" stop-color="#F7DD43" stop-opacity="0"/>
</linearGradient>
<linearGradient id="paint58_linear_122_130" x1="968.414" y1="4.24899" x2="906.189" y2="351.665" gradientUnits="userSpaceOnUse">
<stop stop-color="#F7DD43"/>
<stop offset="1" stop-color="#F7DD43" stop-opacity="0"/>
</linearGradient>
<linearGradient id="paint59_linear_122_130" x1="968.414" y1="4.24899" x2="906.189" y2="351.665" gradientUnits="userSpaceOnUse">
<stop stop-color="#F7DD43"/>
<stop offset="1" stop-color="#F7DD43" stop-opacity="0"/>
</linearGradient>
<linearGradient id="paint60_linear_122_130" x1="968.414" y1="4.24899" x2="906.189" y2="351.665" gradientUnits="userSpaceOnUse">
<stop stop-color="#F7DD43"/>
<stop offset="1" stop-color="#F7DD43" stop-opacity="0"/>
</linearGradient>
<linearGradient id="paint61_linear_122_130" x1="968.414" y1="4.24899" x2="906.189" y2="351.665" gradientUnits="userSpaceOnUse">
<stop stop-color="#F7DD43"/>
<stop offset="1" stop-color="#F7DD43" stop-opacity="0"/>
</linearGradient>
<linearGradient id="paint62_linear_122_130" x1="968.414" y1="4.24899" x2="906.189" y2="351.665" gradientUnits="userSpaceOnUse">
<stop stop-color="#F7DD43"/>
<stop offset="1" stop-color="#F7DD43" stop-opacity="0"/>
</linearGradient>
<linearGradient id="paint63_linear_122_130" x1="968.414" y1="4.24899" x2="906.189" y2="351.665" gradientUnits="userSpaceOnUse">
<stop stop-color="#F7DD43"/>
<stop offset="1" stop-color="#F7DD43" stop-opacity="0"/>
</linearGradient>
<linearGradient id="paint64_linear_122_130" x1="968.414" y1="4.24899" x2="906.189" y2="351.665" gradientUnits="userSpaceOnUse">
<stop stop-color="#F7DD43"/>
<stop offset="1" stop-color="#F7DD43" stop-opacity="0"/>
</linearGradient>
<linearGradient id="paint65_linear_122_130" x1="968.414" y1="4.24899" x2="906.189" y2="351.665" gradientUnits="userSpaceOnUse">
<stop stop-color="#F7DD43"/>
<stop offset="1" stop-color="#F7DD43" stop-opacity="0"/>
</linearGradient>
<linearGradient id="paint66_linear_122_130" x1="968.414" y1="4.24899" x2="906.189" y2="351.665" gradientUnits="userSpaceOnUse">
<stop stop-color="#F7DD43"/>
<stop offset="1" stop-color="#F7DD43" stop-opacity="0"/>
</linearGradient>
<linearGradient id="paint67_linear_122_130" x1="968.414" y1="4.24899" x2="906.189" y2="351.665" gradientUnits="userSpaceOnUse">
<stop stop-color="#F7DD43"/>
<stop offset="1" stop-color="#F7DD43" stop-opacity="0"/>
</linearGradient>
<linearGradient id="paint68_linear_122_130" x1="968.414" y1="4.24899" x2="906.189" y2="351.665" gradientUnits="userSpaceOnUse">
<stop stop-color="#F7DD43"/>
<stop offset="1" stop-color="#F7DD43" stop-opacity="0"/>
</linearGradient>
<linearGradient id="paint69_linear_122_130" x1="968.414" y1="4.24899" x2="906.189" y2="351.665" gradientUnits="userSpaceOnUse">
<stop stop-color="#F7DD43"/>
<stop offset="1" stop-color="#F7DD43" stop-opacity="0"/>
</linearGradient>
<linearGradient id="paint70_linear_122_130" x1="968.414" y1="4.24899" x2="906.189" y2="351.665" gradientUnits="userSpaceOnUse">
<stop stop-color="#F7DD43"/>
<stop offset="1" stop-color="#F7DD43" stop-opacity="0"/>
</linearGradient>
<linearGradient id="paint71_linear_122_130" x1="968.414" y1="4.24899" x2="906.189" y2="351.665" gradientUnits="userSpaceOnUse">
<stop stop-color="#F7DD43"/>
<stop offset="1" stop-color="#F7DD43" stop-opacity="0"/>
</linearGradient>
<linearGradient id="paint72_linear_122_130" x1="968.414" y1="4.24899" x2="906.189" y2="351.665" gradientUnits="userSpaceOnUse">
<stop stop-color="#F7DD43"/>
<stop offset="1" stop-color="#F7DD43" stop-opacity="0"/>
</linearGradient>
<linearGradient id="paint73_linear_122_130" x1="968.414" y1="4.24899" x2="906.189" y2="351.665" gradientUnits="userSpaceOnUse">
<stop stop-color="#F7DD43"/>
<stop offset="1" stop-color="#F7DD43" stop-opacity="0"/>
</linearGradient>
<linearGradient id="paint74_linear_122_130" x1="968.414" y1="4.24899" x2="906.189" y2="351.665" gradientUnits="userSpaceOnUse">
<stop stop-color="#F7DD43"/>
<stop offset="1" stop-color="#F7DD43" stop-opacity="0"/>
</linearGradient>
<linearGradient id="paint75_linear_122_130" x1="968.414" y1="4.24899" x2="906.189" y2="351.665" gradientUnits="userSpaceOnUse">
<stop stop-color="#F7DD43"/>
<stop offset="1" stop-color="#F7DD43" stop-opacity="0"/>
</linearGradient>
<linearGradient id="paint76_linear_122_130" x1="968.414" y1="4.24899" x2="906.189" y2="351.665" gradientUnits="userSpaceOnUse">
<stop stop-color="#F7DD43"/>
<stop offset="1" stop-color="#F7DD43" stop-opacity="0"/>
</linearGradient>
<linearGradient id="paint77_linear_122_130" x1="968.414" y1="4.24899" x2="906.189" y2="351.665" gradientUnits="userSpaceOnUse">
<stop stop-color="#F7DD43"/>
<stop offset="1" stop-color="#F7DD43" stop-opacity="0"/>
</linearGradient>
<linearGradient id="paint78_linear_122_130" x1="968.414" y1="4.24899" x2="906.189" y2="351.665" gradientUnits="userSpaceOnUse">
<stop stop-color="#F7DD43"/>
<stop offset="1" stop-color="#F7DD43" stop-opacity="0"/>
</linearGradient>
<linearGradient id="paint79_linear_122_130" x1="968.414" y1="4.24899" x2="906.189" y2="351.665" gradientUnits="userSpaceOnUse">
<stop stop-color="#F7DD43"/>
<stop offset="1" stop-color="#F7DD43" stop-opacity="0"/>
</linearGradient>
<linearGradient id="paint80_linear_122_130" x1="968.414" y1="4.24899" x2="906.189" y2="351.665" gradientUnits="userSpaceOnUse">
<stop stop-color="#F7DD43"/>
<stop offset="1" stop-color="#F7DD43" stop-opacity="0"/>
</linearGradient>
<linearGradient id="paint81_linear_122_130" x1="968.414" y1="4.24899" x2="906.189" y2="351.665" gradientUnits="userSpaceOnUse">
<stop stop-color="#F7DD43"/>
<stop offset="1" stop-color="#F7DD43" stop-opacity="0"/>
</linearGradient>
<linearGradient id="paint82_linear_122_130" x1="968.414" y1="4.24899" x2="906.189" y2="351.665" gradientUnits="userSpaceOnUse">
<stop stop-color="#F7DD43"/>
<stop offset="1" stop-color="#F7DD43" stop-opacity="0"/>
</linearGradient>
<linearGradient id="paint83_linear_122_130" x1="968.414" y1="4.24899" x2="906.189" y2="351.665" gradientUnits="userSpaceOnUse">
<stop stop-color="#F7DD43"/>
<stop offset="1" stop-color="#F7DD43" stop-opacity="0"/>
</linearGradient>
<linearGradient id="paint84_linear_122_130" x1="968.414" y1="4.24899" x2="906.189" y2="351.665" gradientUnits="userSpaceOnUse">
<stop stop-color="#F7DD43"/>
<stop offset="1" stop-color="#F7DD43" stop-opacity="0"/>
</linearGradient>
<linearGradient id="paint85_linear_122_130" x1="968.414" y1="4.24899" x2="906.189" y2="351.665" gradientUnits="userSpaceOnUse">
<stop stop-color="#F7DD43"/>
<stop offset="1" stop-color="#F7DD43" stop-opacity="0"/>
</linearGradient>
<linearGradient id="paint86_linear_122_130" x1="968.414" y1="4.24899" x2="906.189" y2="351.665" gradientUnits="userSpaceOnUse">
<stop stop-color="#F7DD43"/>
<stop offset="1" stop-color="#F7DD43" stop-opacity="0"/>
</linearGradient>
<linearGradient id="paint87_linear_122_130" x1="968.414" y1="4.24899" x2="906.189" y2="351.665" gradientUnits="userSpaceOnUse">
<stop stop-color="#F7DD43"/>
<stop offset="1" stop-color="#F7DD43" stop-opacity="0"/>
</linearGradient>
<linearGradient id="paint88_linear_122_130" x1="968.414" y1="4.24899" x2="906.189" y2="351.665" gradientUnits="userSpaceOnUse">
<stop stop-color="#F7DD43"/>
<stop offset="1" stop-color="#F7DD43" stop-opacity="0"/>
</linearGradient>
<linearGradient id="paint89_linear_122_130" x1="968.414" y1="4.24899" x2="906.189" y2="351.665" gradientUnits="userSpaceOnUse">
<stop stop-color="#F7DD43"/>
<stop offset="1" stop-color="#F7DD43" stop-opacity="0"/>
</linearGradient>
<linearGradient id="paint90_linear_122_130" x1="968.414" y1="4.24899" x2="906.189" y2="351.665" gradientUnits="userSpaceOnUse">
<stop stop-color="#F7DD43"/>
<stop offset="1" stop-color="#F7DD43" stop-opacity="0"/>
</linearGradient>
<linearGradient id="paint91_linear_122_130" x1="968.414" y1="4.24899" x2="906.189" y2="351.665" gradientUnits="userSpaceOnUse">
<stop stop-color="#F7DD43"/>
<stop offset="1" stop-color="#F7DD43" stop-opacity="0"/>
</linearGradient>
<linearGradient id="paint92_linear_122_130" x1="968.414" y1="4.24899" x2="906.189" y2="351.665" gradientUnits="userSpaceOnUse">
<stop stop-color="#F7DD43"/>
<stop offset="1" stop-color="#F7DD43" stop-opacity="0"/>
</linearGradient>
<linearGradient id="paint93_linear_122_130" x1="968.414" y1="4.24899" x2="906.189" y2="351.665" gradientUnits="userSpaceOnUse">
<stop stop-color="#F7DD43"/>
<stop offset="1" stop-color="#F7DD43" stop-opacity="0"/>
</linearGradient>
<clipPath id="clip0_122_130">
<rect width="1024" height="753" fill="white"/>
</clipPath>
</defs>
</svg>
